<svg width="18" height="18" viewBox="0 0 18 18" fill="none" xmlns="http://www.w3.org/2000/svg">
<g clip-path="url(#clip0_1654_2145)">
<path opacity="0.5" d="M1.5 9C1.5 5.46446 1.5 3.6967 2.59835 2.59835C3.6967 1.5 5.46446 1.5 9 1.5C12.5355 1.5 14.3033 1.5 15.4016 2.59835C16.5 3.6967 16.5 5.46446 16.5 9C16.5 12.5355 16.5 14.3033 15.4016 15.4016C14.3033 16.5 12.5355 16.5 9 16.5C5.46446 16.5 3.6967 16.5 2.59835 15.4016C1.5 14.3033 1.5 12.5355 1.5 9Z" stroke="#F4DF08" stroke-width="1.125"/>
<path d="M11.25 9H9M9 9H6.75M9 9V6.75M9 9V11.25" stroke="#F4DF08" stroke-width="1.125" stroke-linecap="round"/>
</g>
<defs>
<clipPath id="clip0_1654_2145">
<rect width="18" height="18" fill="white"/>
</clipPath>
</defs>
</svg>
