<svg width="8" height="23" viewBox="0 0 8 23" fill="none" xmlns="http://www.w3.org/2000/svg"><g clip-path="url(#clip0_76_476)"><path d="M6.56162 3.19446H0.820202C0.602671 3.19446 0.394049 3.4637 0.240232 3.94296C0.0864139 4.42222 0 5.07224 0 5.75001L0 17.25C0 17.9278 0.0864139 18.5778 0.240232 19.0571C0.394049 19.5363 0.602671 19.8056 0.820202 19.8056H6.56162C6.77915 19.8056 6.98777 19.5363 7.14159 19.0571C7.2954 18.5778 7.38182 17.9278 7.38182 17.25V5.75001C7.38182 5.07224 7.2954 4.42222 7.14159 3.94296C6.98777 3.4637 6.77915 3.19446 6.56162 3.19446Z" fill="#006C35"/><path d="M1.82864 8.9764C1.95824 9.01473 1.88667 8.29343 1.93363 8.16245C1.94245 8.09793 1.95885 8.09729 1.96008 8.17907V8.79112C1.95885 8.99046 2.00089 9.04859 2.03349 9.09012C2.06753 9.08182 2.09008 9.08565 2.10341 9.18851L2.1194 10.2478C2.1194 10.2478 2.19814 10.3181 2.20184 9.65171C2.20573 9.2607 2.17682 8.93359 2.19384 8.85757C2.19445 8.78282 2.22501 8.77834 2.24633 8.81476C2.28016 8.88887 2.29534 8.98087 2.34783 8.94445C2.42801 8.87609 2.47599 8.7547 2.47722 8.56304C2.4725 8.38095 2.46594 8.19887 2.44072 8.01679C2.4442 7.98357 2.42534 7.89796 2.42883 7.86473C2.44318 7.93501 2.46512 7.92926 2.47004 7.86473C2.45651 7.72482 2.43539 7.59065 2.40094 7.53251C2.37264 7.45457 2.33122 7.47054 2.31605 7.63282C2.30908 7.81937 2.33778 8.0417 2.38125 8.22251C2.39048 8.29343 2.4036 8.41098 2.39786 8.51704C2.37469 8.55793 2.35132 8.54132 2.33204 8.47743C2.33204 8.47743 2.26827 8.32857 2.26827 8.29534C2.28529 7.95801 2.27217 7.91968 2.26274 7.8264C2.25617 7.69734 2.23649 7.65582 2.22049 7.56765C2.2045 7.51526 2.18297 7.51526 2.17272 7.56765C2.14442 7.71971 2.15754 8.04682 2.17805 8.19312C2.19261 8.32729 2.21516 8.41226 2.2045 8.41226C2.19568 8.48829 2.17764 8.4704 2.16452 8.38287C2.14565 8.20143 2.14196 7.93118 2.14196 7.80915C2.13622 7.65837 2.13007 7.33573 2.09828 7.25396C2.0788 7.17154 2.04989 7.21115 2.03985 7.28718C2.03779 7.43668 2.03738 7.58682 2.04292 7.72545C2.06466 7.96759 2.07163 8.18098 2.08229 8.42951C2.08516 8.76237 2.02057 8.5739 2.02344 8.40907C2.03841 8.19504 2.03451 7.8577 2.02119 7.77209C2.01073 7.68712 1.99822 7.6654 1.97279 7.67946C1.9527 7.67434 1.90062 7.85195 1.88585 8.14584C1.88585 8.14584 1.87334 8.29726 1.86801 8.43207C1.86084 8.58412 1.82885 8.69145 1.80629 8.41098C1.78681 8.20718 1.77492 7.70437 1.74232 7.82193C1.73288 8.21484 1.72161 8.90612 1.82864 8.9764Z" fill="white"/><path d="M2.02381 9.26324C1.91719 9.26963 1.76114 9.69961 1.75684 9.93791C1.8692 9.76925 1.97973 9.60697 2.09414 9.43319C2.07569 9.34694 2.09312 9.26963 2.02381 9.26324Z" fill="white"/><path d="M2.61172 10.5519C2.66114 10.0389 2.60372 9.66066 2.63059 9.66257C2.68739 9.8536 2.76695 9.68813 2.78437 9.62169C2.79196 9.58846 2.81062 9.56674 2.82374 9.61018C2.86824 9.70985 2.94657 9.66257 2.96277 9.48752C2.97301 9.3117 2.97931 9.13387 2.98163 8.95532C2.94534 8.99046 2.91827 9.0141 2.91581 9.06074L2.90822 9.2128C2.90515 9.26199 2.87378 9.26391 2.87255 9.2013C2.85881 9.00644 2.8018 8.98088 2.76736 9.28307C2.74418 9.34185 2.70235 9.35335 2.69784 9.26582C2.70338 9.0633 2.67713 9.03582 2.62464 9.13102C2.60783 8.72916 2.59081 8.34518 2.57399 7.94332C2.59593 7.94141 2.61603 7.99188 2.63592 7.91394C2.61398 7.70119 2.56764 7.26674 2.542 7.23543C2.5295 7.18816 2.51883 7.21755 2.50263 7.22968C2.47516 7.25716 2.44953 7.33127 2.45752 7.47502C2.49013 8.09155 2.51145 8.56113 2.54385 9.17766C2.54877 9.24985 2.5295 9.34505 2.50448 9.33546C2.46203 9.24602 2.45137 9.06457 2.37878 9.07224C2.32609 9.07416 2.26601 9.25177 2.25862 9.42363C2.24981 9.55971 2.24673 9.70793 2.25862 9.82741C2.29553 9.96541 2.34003 9.95199 2.37878 9.92068C2.41057 9.8798 2.43702 9.78013 2.44809 9.80377C2.45568 9.83252 2.44994 10.1603 2.29799 10.412C2.20593 10.5404 2.13272 10.5698 2.09335 10.336C2.06895 10.1897 2.0952 9.63382 2.03512 9.76288C1.85734 11.1908 2.45137 11.3889 2.51781 9.82166C2.52417 9.75713 2.54918 9.6926 2.55349 9.79802C2.53975 11.2176 2.09397 11.3154 2.01831 10.8688C1.99944 10.7634 1.9939 10.5295 1.99206 10.389C1.98078 10.1098 1.93382 10.2171 1.92644 10.4938C1.91886 10.6477 1.92091 10.6912 1.92091 10.8388C1.94449 11.96 2.51863 11.4783 2.61172 10.5519ZM2.39027 9.58207C2.38658 9.6038 2.37038 9.59485 2.35848 9.59485C2.34495 9.59293 2.33859 9.58591 2.33039 9.55205C2.3267 9.51371 2.33818 9.4773 2.34331 9.44855C2.34967 9.41468 2.38391 9.37955 2.39601 9.4741C2.39825 9.49205 2.3989 9.51154 2.39789 9.53054C2.39688 9.54954 2.39424 9.56734 2.39027 9.58207Z" fill="white"/><path d="M2.78879 8.31132C2.82446 8.27043 2.99363 7.66796 2.99363 7.66796C2.98481 7.64432 2.97702 7.62707 2.9682 7.60343C2.95877 7.57787 2.9598 7.55232 2.9682 7.5274C3.01004 7.45137 2.99671 7.28462 2.97477 7.2086C2.96058 7.1869 2.94495 7.17584 2.92915 7.17628C2.91334 7.17673 2.89779 7.18867 2.88372 7.21115C2.8544 7.29868 2.84743 7.43923 2.8706 7.5274C2.89316 7.56062 2.91571 7.63154 2.90074 7.67051C2.83164 7.90051 2.64217 8.29726 2.66412 8.31132C2.66883 8.33048 2.78509 8.32985 2.78879 8.31132ZM2.91407 7.36512C2.92494 7.35682 2.93888 7.38685 2.94544 7.43157C2.95201 7.47629 2.94852 7.51909 2.93786 7.5274H2.93745C2.92678 7.53571 2.91284 7.50568 2.90628 7.46096C2.89992 7.4156 2.90341 7.37343 2.91407 7.36512ZM1.81685 11.026C1.78896 11.2029 1.77727 11.0815 1.77481 10.9825C1.77161 10.8162 1.77429 10.6493 1.78281 10.4848C1.78978 10.3443 1.78281 10.3871 1.76845 10.4439C1.70509 10.7583 1.69956 11.2285 1.73462 11.3684C1.75308 11.4348 1.78363 11.4642 1.80639 11.4425C1.84617 11.3888 1.8636 11.1371 1.85417 11.0458C1.84063 10.9812 1.83017 10.971 1.81685 11.026ZM3.90447 7.69862C3.97746 8.00401 4.04677 8.31515 4.11464 8.63204C4.12797 8.90676 4.13761 9.1751 4.14335 9.44151C4.15463 9.95518 4.15791 10.511 4.14766 11.0522C4.17841 11.056 4.22824 10.8963 4.24546 10.6631C4.25674 10.3404 4.24136 9.76607 4.24034 9.57568C4.23898 9.45635 4.23713 9.33708 4.2348 9.2179C4.31559 9.62935 4.39433 10.06 4.47122 10.5385C4.49932 10.4976 4.49317 10.0082 4.47676 9.93921C4.41525 9.5284 4.33056 9.12207 4.30349 8.96618C4.29345 8.90868 4.2592 8.74512 4.2184 8.55793C4.21489 8.40852 4.20915 8.25971 4.20117 8.11198C4.18846 7.83854 4.23747 8.14201 4.2307 7.98293C4.21491 7.70948 4.16611 7.52484 4.10911 7.2744C4.09065 7.19326 4.09127 7.17665 4.06276 7.29421C4.05269 7.36463 4.04805 7.44144 4.04923 7.51846C4.04033 7.47769 4.03082 7.43824 4.02073 7.40026C3.98978 7.31707 3.95868 7.23444 3.92743 7.15237C3.90672 7.10637 3.85628 7.02332 3.84726 7.16132C3.84306 7.25805 3.84459 7.35636 3.85177 7.45137C3.8571 7.51973 3.88888 7.63346 3.90447 7.69862ZM4.0562 7.68329C4.0601 7.73632 4.0642 7.78935 4.06687 7.84365L4.06994 7.8954C4.06134 7.85795 4.05238 7.8213 4.04308 7.78551C4.00945 7.66157 4.03734 7.6884 4.0562 7.68329Z" fill="white"/><path d="M4.4944 10.665C4.42304 10.8969 4.3201 11.1825 4.20815 11.3147C4.19605 11.3569 4.23808 11.5377 4.29222 11.5377C4.38305 11.5045 4.46302 11.3454 4.53705 10.9269C4.55694 10.8298 4.59179 10.6209 4.59261 10.4586C4.59938 9.50921 4.57744 8.77001 4.53171 8.08385C4.52865 8.02879 4.52949 7.97231 4.53418 7.91837C4.53992 7.89665 4.56001 7.91837 4.57067 7.86471C4.58605 7.81487 4.52946 7.40599 4.49706 7.24882C4.48558 7.17854 4.48168 7.13126 4.46261 7.25712C4.44252 7.35935 4.42919 7.5376 4.43083 7.70371C4.4741 8.6384 4.48742 9.45682 4.51572 10.3915C4.51798 10.4816 4.51367 10.6132 4.4944 10.665ZM5.68984 8.29468C5.68676 8.22824 5.67733 8.07362 5.68102 8.05382C5.68676 8.00654 5.7165 8.05893 5.72716 8.00462C5.74274 7.95543 5.65047 7.58615 5.61828 7.42899C5.60659 7.35871 5.60269 7.31143 5.58362 7.43729C5.56353 7.53951 5.55656 7.72287 5.56455 7.88387C5.61274 8.89907 5.64862 9.6619 5.65601 10.5621C5.6517 10.6477 5.65088 10.6937 5.63796 10.801C5.60946 10.9148 5.57809 11.0566 5.54836 11.1256C5.51883 11.194 5.45588 11.2598 5.43517 11.3102C5.37017 11.4284 5.36996 11.5632 5.42286 11.5677C5.5135 11.5345 5.62094 11.5115 5.69497 11.1627C5.71486 11.0655 5.73844 10.8017 5.73946 10.6394C5.74623 9.69001 5.73557 8.98085 5.68984 8.29468ZM5.00272 9.08499C5.00354 8.95465 5.00743 8.78215 5.00969 8.67418C5.01071 8.63393 5.01379 8.58857 5.02609 8.57835C5.0386 8.56812 5.06075 8.61796 5.06095 8.57579C5.05849 8.49337 5.05316 8.37071 5.03819 8.31257C5.01768 8.21801 4.96335 8.24101 4.95371 8.38924C4.95391 8.44418 4.96191 8.47357 4.96048 8.5234C4.95801 8.55151 4.94858 8.57068 4.92623 8.53746C4.92992 8.52724 4.91167 8.44865 4.91167 8.44865C4.89424 8.41543 4.87087 8.45057 4.8559 8.4806C4.85048 8.51281 4.84725 8.54815 4.8464 8.58442C4.84556 8.62069 4.84711 8.65711 4.85098 8.69143C4.87558 8.83646 4.9615 9.08243 5.00272 9.08499Z" fill="white"/><path d="M4.97377 7.97398C5.03385 8.20334 5.09516 8.4359 5.15688 8.67229C5.17021 9.20001 5.17369 9.6319 5.18682 10.1596C5.18497 10.3832 5.16282 10.5781 5.1417 10.6062C5.1417 10.6062 5.10992 10.6637 5.0886 10.6005C5.07301 10.5806 5.01088 10.2778 5.01088 10.2778C4.9791 10.1871 4.95818 10.2126 4.93563 10.2778C4.87329 10.465 4.8452 10.8164 4.80296 11.0579C4.79189 11.1122 4.76113 11.1582 4.72689 11.0541C4.64015 10.6841 4.691 10.1583 4.68034 10.2938C4.60304 10.5653 4.63708 11.0145 4.6545 11.1116C4.67993 11.27 4.70064 11.3722 4.75026 11.4508C4.79537 11.5543 4.83064 11.4892 4.84992 11.417C4.89544 11.2694 4.89605 10.8956 4.91738 10.8202C4.93214 10.6842 4.97008 10.7071 4.98833 10.7678C5.00504 10.8413 5.0272 10.9012 5.05292 10.9423C5.09536 11.0592 5.14601 11.0803 5.19584 10.9736C5.22988 10.9141 5.25223 10.8368 5.27212 10.6841C5.29426 10.5001 5.28216 9.65426 5.27765 9.14698C5.30944 9.27476 5.3404 9.40829 5.37177 9.54182C5.38551 9.9654 5.3933 10.3871 5.38879 10.8177C5.38551 10.9039 5.48516 10.5621 5.48434 10.3998C5.48393 10.2689 5.48434 10.15 5.48434 10.0382C5.53233 10.2631 5.57908 10.495 5.62296 10.7404C5.65043 10.6957 5.64141 10.2133 5.62398 10.1468C5.57334 9.88234 5.50587 9.60698 5.45933 9.41021C5.45625 9.38529 5.45461 9.35718 5.45092 9.33354C5.43226 9.19873 5.44395 9.09012 5.43513 8.94701C5.42652 8.80326 5.42878 8.58859 5.41545 8.41801C5.41176 8.35157 5.40068 8.13818 5.40396 8.11837C5.4093 8.07046 5.4298 8.11965 5.43985 8.06471C5.45482 8.01359 5.38797 7.47373 5.35393 7.31912C5.34163 7.25012 5.31948 7.27376 5.29201 7.38621C5.26679 7.46032 5.27622 7.62898 5.28585 7.78934C5.30985 8.17779 5.32994 8.55026 5.34716 8.9189C5.31029 8.76616 5.27304 8.61431 5.23541 8.46337L5.23377 8.43526C5.23377 8.42823 5.22824 8.10048 5.22331 8.02254C5.22249 7.99123 5.22003 7.98165 5.2307 7.98548C5.24197 8.01487 5.24341 8.01679 5.25059 8.02701C5.26207 8.0334 5.27212 7.97271 5.26535 7.91712L5.15934 7.3089C5.15093 7.28271 5.13986 7.25459 5.12653 7.31593C5.11825 7.33845 5.11163 7.36624 5.1071 7.39744C5.10257 7.42863 5.10025 7.4625 5.10028 7.49673C5.10357 7.64048 5.11156 7.78743 5.11464 7.93182L5.11915 8.00976C5.11443 7.99251 5.10869 7.97079 5.10623 7.96312C5.01621 7.66796 5.14765 7.91521 5.08901 7.68712C5.03938 7.51718 5.02503 7.46415 4.98238 7.36193C4.96106 7.31912 4.94814 7.23734 4.94117 7.37662C4.93766 7.49875 4.93663 7.62145 4.93809 7.74398C4.93809 7.80276 4.95716 7.91009 4.97377 7.97398ZM3.14861 8.66334C3.20029 8.72979 3.2333 8.42312 3.25462 8.08707C3.26898 7.99251 3.28005 7.98229 3.28743 8.03084C3.28559 8.47807 3.29769 8.57709 3.33459 8.71318C3.41682 8.91123 3.4849 8.73809 3.49043 8.72148L3.55441 8.52215C3.56856 8.47551 3.58763 8.47232 3.60772 8.51384C3.62741 8.56879 3.62474 8.66462 3.66657 8.73107C3.70184 8.77515 3.7773 8.74129 3.79473 8.64673C3.81831 8.52151 3.82405 8.47807 3.83471 8.43079C3.85153 8.36115 3.88023 8.39246 3.88023 8.41418C3.87757 8.45315 3.86075 8.49212 3.87224 8.56176C3.89233 8.6084 3.89684 8.57837 3.90874 8.56815C3.95057 8.50554 3.98173 8.22315 3.98173 8.22315C3.98358 8.11773 3.96471 8.12668 3.95241 8.1484C3.93642 8.17843 3.93539 8.18865 3.9194 8.21932C3.89889 8.2289 3.85932 8.27107 3.83984 8.17651C3.81974 8.06279 3.81933 7.90434 3.80416 7.78998C3.80416 7.78168 3.7775 7.60918 3.80231 7.59832C3.81482 7.60534 3.84127 7.62707 3.84558 7.55807C3.8585 7.49034 3.81749 7.2974 3.7896 7.19965C3.7652 7.11659 3.73137 7.10637 3.69876 7.19134C3.6758 7.25715 3.67908 7.32998 3.67457 7.39962C3.67084 7.44876 3.67085 7.49994 3.67459 7.54907C3.67833 7.59821 3.68569 7.64394 3.6961 7.68265C3.71886 7.82257 3.76048 8.00337 3.74675 8.25637C3.74675 8.25637 3.72255 8.37648 3.6801 8.36115C3.66247 8.34901 3.63376 8.32537 3.61859 7.97398C3.60711 7.70757 3.62146 7.33509 3.58517 7.16068C3.57204 7.05526 3.56261 6.95368 3.53062 7.13384C3.52201 7.20476 3.4851 7.31209 3.51196 7.53379C3.5339 7.67371 3.54272 7.90179 3.53288 8.15607C3.5177 8.22826 3.51442 8.25254 3.49453 8.32473C3.46665 8.41801 3.4365 8.39437 3.41333 8.35923C3.3916 8.31387 3.37478 8.29023 3.36494 8.14584C3.36679 7.91584 3.37089 7.5389 3.35736 7.45904C3.33747 7.33509 3.30466 7.37982 3.29051 7.41751C3.22305 7.60982 3.18983 7.93373 3.16953 8.19121C3.15087 8.37904 3.13098 8.32537 3.11704 8.24934C3.083 8.14968 3.08074 7.37215 3.03953 7.50057C2.9733 8.08451 3.07685 8.72596 3.14861 8.66334Z" fill="white"/><path d="M4.12892 9.91814L4.10923 9.883L3.72353 9.87725C3.70364 9.85361 3.70959 9.83317 3.72353 9.81656C3.8156 9.77758 3.97944 9.69453 3.9903 9.2045C3.98846 8.94958 3.95503 8.7822 3.85456 8.7362C3.78095 8.75408 3.72825 8.97706 3.73666 9.22175C3.73317 9.2882 3.74363 9.41725 3.7221 9.43195C3.58041 9.4722 3.426 9.7482 3.42088 9.94625C3.41227 9.96478 3.39299 9.91111 3.39545 9.82678C3.38863 9.46604 3.3553 9.115 3.29805 8.80072C3.25335 8.66145 3.2673 8.70745 3.23736 8.77325C3.21808 8.84225 3.2146 8.88953 3.21562 9.02689C3.21562 9.032 3.25171 9.3457 3.28226 9.56547C3.30256 9.791 3.32163 10.0485 3.3079 10.2919C3.26032 10.6139 3.16457 10.9027 3.07229 11.0592C3.02472 11.1071 2.98392 11.0899 2.97387 11.0566C2.94455 10.9953 2.94598 10.8822 2.94824 10.8803C3.02595 10.711 3.11494 10.5749 3.18466 10.1194C3.20516 9.94561 3.21132 9.8402 3.19102 9.57122C3.18538 9.47644 3.17139 9.3884 3.15062 9.31695C3.16313 9.29139 3.19901 9.37636 3.20455 9.32589C3.19415 9.17866 3.17063 9.04357 3.13668 8.93617C3.109 8.85758 3.07885 8.84864 3.05343 8.92083C3.02472 8.97067 3.01857 9.14828 3.03231 9.30417C3.04748 9.42172 3.0887 9.44153 3.11822 9.67728C3.11822 9.68239 3.12889 9.85361 3.11371 9.9207C3.10161 10.0383 2.94475 10.4222 2.93614 10.4395C2.93183 10.4561 2.93368 10.4312 2.93306 10.3673C2.93204 10.2893 2.94311 10.1053 2.94003 10.1041C2.88898 10.2069 2.87196 10.5219 2.86273 10.6152C2.73355 10.8931 2.58735 11.1001 2.50287 11.3825C2.45878 11.5965 2.80593 11.1365 2.84633 11.0809C2.85535 11.1014 2.85432 11.1978 2.87852 11.2841C2.91461 11.4361 2.99089 11.5301 3.06573 11.4719C3.19081 11.3307 3.26319 11.0649 3.3366 10.7704C3.34706 10.7225 3.36346 10.6861 3.37864 10.7225C3.42908 11.0745 3.57487 11.3237 3.7629 11.3499C3.80658 11.1844 3.78546 11.1046 3.76782 11.0701C3.76782 11.0649 3.67494 10.9551 3.66079 10.8452C3.65218 10.7455 3.67309 10.658 3.71492 10.5915C3.8357 10.5462 3.95442 10.4957 4.06945 10.3807C4.07068 10.2606 4.09303 10.0804 4.10841 10.0025C4.12318 9.92325 4.13117 9.94689 4.12892 9.91814ZM3.8117 9.16936C3.81745 9.13933 3.83652 9.14061 3.85435 9.1732C3.87219 9.20514 3.88224 9.25625 3.8763 9.28628C3.87055 9.31695 3.85128 9.31503 3.83344 9.28245C3.8156 9.2505 3.80596 9.20003 3.8117 9.16936ZM3.65648 10.3833C3.61506 10.4273 3.57528 10.4618 3.57528 10.6484C3.59066 10.9078 3.55416 10.819 3.53263 10.7832C3.5072 10.7263 3.43564 10.589 3.42539 10.2925C3.42375 10.2216 3.44159 10.1622 3.47009 10.1622C3.51295 10.1986 3.57631 10.2012 3.63126 10.2191C3.67617 10.228 3.69852 10.3379 3.65648 10.3833ZM2.22789 7.50506C2.27219 7.5715 2.35585 7.54339 2.35215 7.31978C2.35215 7.29997 2.35051 7.23353 2.3499 7.21564C2.34088 7.14983 2.31627 7.16581 2.31053 7.23417C2.30868 7.25653 2.31361 7.29231 2.30725 7.30381C2.30356 7.31531 2.28941 7.30828 2.29002 7.24695C2.29002 7.22714 2.28531 7.20606 2.28264 7.19392C2.27977 7.18817 2.27813 7.18625 2.27301 7.18625C2.26685 7.18689 2.26685 7.192 2.26357 7.20861C2.26214 7.22458 2.26009 7.2412 2.26009 7.25972C2.25927 7.28145 2.2566 7.28911 2.25148 7.29295C2.24573 7.29295 2.24696 7.29486 2.24245 7.28528C2.23958 7.2757 2.2361 7.27186 2.2361 7.25589C2.23608 7.23722 2.23511 7.21867 2.23323 7.20095C2.23077 7.19072 2.22687 7.18625 2.22236 7.18242C2.19816 7.18242 2.19652 7.26867 2.19796 7.30189C2.1957 7.30764 2.19488 7.46225 2.22789 7.50506Z" fill="white"/><path d="M3.59081 8.9617C3.59081 8.94189 3.5861 8.92145 3.58343 8.90867C3.58056 8.90292 3.57892 8.901 3.57379 8.901C3.56764 8.90164 3.56785 8.90675 3.56436 8.92336C3.56292 8.93997 3.56087 8.95595 3.56087 8.97447C3.56026 8.99683 3.55739 9.0045 3.55226 9.0077C3.54652 9.0077 3.54775 9.00961 3.54303 9.00067C3.54016 8.99108 3.53668 8.98725 3.53668 8.97128C3.53668 8.9526 3.53571 8.93405 3.53381 8.91633C3.53135 8.90611 3.52745 8.90164 3.52294 8.89845C3.49874 8.89845 3.4971 8.9847 3.49833 9.01728C3.49649 9.02367 3.49546 9.17764 3.52848 9.22108C3.57297 9.28689 3.67857 9.24856 3.65274 9.03581C3.6523 9.00082 3.65155 8.96588 3.65048 8.93103C3.64146 8.86522 3.61665 8.88183 3.61111 8.94956C3.60947 8.97192 3.61439 9.0077 3.60783 9.0192C3.60455 9.0307 3.5902 9.02367 3.59081 8.9617ZM4.28737 8.51C4.33166 8.57645 4.41511 8.54833 4.41142 8.32536C4.41099 8.29038 4.41024 8.25544 4.40917 8.22058C4.40015 8.15478 4.37554 8.17139 4.37 8.23911C4.36816 8.26147 4.37308 8.29725 4.36652 8.30875C4.36283 8.32025 4.34868 8.31386 4.34929 8.25189C4.34929 8.23208 4.34458 8.211 4.34191 8.19886C4.33904 8.19311 4.3374 8.1912 4.33207 8.1912C4.32592 8.19247 4.32612 8.19695 4.32264 8.21356C4.3212 8.23017 4.31915 8.24614 4.31915 8.26467C4.31833 8.28703 4.31567 8.2947 4.31054 8.29789C4.3048 8.29789 4.30603 8.29981 4.30131 8.29086C4.29844 8.28128 4.29516 8.27745 4.29516 8.26147C4.29514 8.24259 4.29417 8.22384 4.29229 8.20589C4.28962 8.19567 4.28593 8.1912 4.28122 8.188C4.25702 8.188 4.25538 8.27425 4.25682 8.30683C4.25538 8.31322 4.25435 8.4672 4.28737 8.51ZM4.31731 7.64622C4.33309 7.78422 4.30521 7.91583 4.32182 7.935C4.33679 7.95672 4.35811 7.79253 4.3659 7.64111C4.37513 7.51845 4.34704 7.26736 4.30726 7.21561C4.28306 7.19772 4.24861 7.24245 4.25969 7.34339C4.25415 7.39195 4.30849 7.55678 4.31731 7.64622ZM4.72638 10.8816C4.75734 10.8822 4.79302 10.6611 4.8082 10.442C4.8166 10.1404 4.80245 9.95708 4.79999 9.77947C4.79733 9.6025 4.73581 8.25125 4.7231 8.11708C4.70813 7.86345 4.78318 8.08322 4.77498 7.93564C4.74894 7.74972 4.68435 7.47947 4.66384 7.31783C4.65154 7.24883 4.65687 7.1875 4.62939 7.29995C4.60417 7.5587 4.59535 7.76953 4.60499 7.93053C4.6702 8.99108 4.73704 9.87275 4.72638 10.8816ZM5.49655 8.10878C5.50373 8.17778 5.48568 8.40075 5.50065 8.4212C5.51439 8.4442 5.53366 8.26722 5.54084 8.10303C5.54474 8.01295 5.52362 7.69861 5.48732 7.64239C5.46518 7.62322 5.43381 7.67114 5.44406 7.78103C5.43893 7.83406 5.48855 8.01167 5.49655 8.10878ZM2.80649 10.4446C2.81982 10.4618 2.83807 10.3315 2.84504 10.2107C2.84894 10.1443 2.82843 9.91364 2.79378 9.87211C2.77245 9.85806 2.74334 9.87595 2.75236 9.97433C2.75133 10.0274 2.79952 10.0913 2.80239 10.2146C2.80936 10.2657 2.79214 10.4299 2.80649 10.4446ZM1.87228 7.49608C1.87905 7.54911 1.86552 7.71842 1.87967 7.73439C1.89258 7.75228 1.91083 7.61683 1.9176 7.49225C1.9215 7.42325 1.91842 7.18942 1.86716 7.1415C1.84604 7.12681 1.81671 7.16322 1.82635 7.24692C1.82143 7.28653 1.8647 7.42197 1.87228 7.49608ZM2.87744 8.2455C2.83828 8.31195 2.8229 8.50872 2.8475 8.62308C2.87026 8.72467 2.90635 8.68697 2.91127 8.68697C2.94982 8.70167 2.97258 8.46208 2.97258 8.46208C2.97258 8.46208 2.97381 8.395 2.92809 8.52214C2.90881 8.53364 2.90635 8.51128 2.90164 8.47678C2.89697 8.41425 2.89906 8.34867 2.90758 8.29022C2.91414 8.23081 2.89938 8.20461 2.87744 8.2455ZM3.17312 7.50886C3.17944 7.49669 3.18487 7.4805 3.18904 7.46134C3.19321 7.44218 3.19603 7.42049 3.19732 7.3977C3.20327 7.30442 3.16554 7.44178 3.16082 7.33764C3.15241 7.24117 3.17661 7.20156 3.19958 7.10828C3.2004 7.04375 3.19999 6.99839 3.17189 7.05078C3.15221 7.09231 3.11284 7.21881 3.11161 7.36447C3.11038 7.44689 3.10546 7.44625 3.12289 7.49864C3.13539 7.5555 3.1479 7.54975 3.17312 7.50886ZM3.43948 7.5587C3.46491 7.34403 3.46491 7.25331 3.46676 7.16195C3.45896 7.02331 3.42882 7.02778 3.40893 7.18175C3.40032 7.23989 3.39027 7.54592 3.39191 7.54592C3.38515 7.63728 3.42247 7.67625 3.43948 7.5587ZM5.11475 9.08117C5.11475 9.08117 4.90908 9.5367 4.90416 9.55267C4.88365 9.60889 4.89391 9.80822 4.90416 9.78522C4.91872 9.80311 5.12561 9.36547 5.12151 9.31436C5.13115 9.31564 5.13587 9.05817 5.11475 9.08117ZM5.08953 10.3168C5.10326 10.3398 5.13956 10.1999 5.13812 10.0254C5.14222 9.93536 5.12766 9.60506 5.09158 9.54883C5.06943 9.52967 5.0399 9.58845 5.05016 9.6977C5.04503 9.75008 5.07558 9.93345 5.08358 10.0306C5.09076 10.1002 5.07456 10.2963 5.08953 10.3168ZM3.92484 11.2726C3.92484 11.2783 3.94227 11.3249 3.96277 11.2879C4.00583 11.2361 4.0329 11.1863 4.09319 11.1448C4.10897 11.1441 4.10795 11.0119 4.08293 11.0074C4.05033 11.0125 4.01998 11.0176 3.98738 11.0981C3.96728 11.1122 3.964 11.0745 3.95949 11.04C3.95457 10.955 3.97077 10.8963 3.96728 10.833C3.96851 10.8368 3.94862 10.78 3.92832 10.8119C3.9273 10.8119 3.88301 10.9052 3.86886 10.9704C3.86004 10.9914 3.86107 11.0093 3.86373 11.0445C3.8705 11.093 3.8826 11.0783 3.89613 11.0553C3.91418 11.0477 3.92279 11.0847 3.92135 11.1518C3.91274 11.2368 3.92484 11.2681 3.92484 11.2726ZM5.26812 11.3786C5.26136 11.415 5.25685 11.47 5.27776 11.4872C5.31631 11.5211 5.4051 11.3409 5.4051 11.3377C5.41945 11.3039 5.41474 11.2406 5.41351 11.2406C5.4051 11.2106 5.38623 11.2278 5.37352 11.2234C5.36757 11.2234 5.34748 11.2138 5.35712 11.1588C5.36389 11.1292 5.36928 11.0967 5.37311 11.0624C5.37906 11.0208 5.37393 10.9934 5.3522 10.971C5.33025 10.9582 5.32144 10.9646 5.29704 10.971C5.28391 10.9799 5.2794 10.9978 5.27694 11.0477C5.27797 11.1231 5.29253 11.1192 5.3077 11.1493C5.31652 11.1844 5.32226 11.2163 5.30708 11.2732C5.29273 11.3147 5.28268 11.3377 5.26812 11.3786ZM5.22875 14.6944H4.92118V14.375C4.92118 14.2903 4.91038 14.209 4.89115 14.1491C4.87192 14.0892 4.84585 14.0556 4.81865 14.0556C4.79146 14.0556 4.76538 14.0892 4.74616 14.1491C4.72693 14.209 4.71613 14.2903 4.71613 14.375V14.6944H2.25552C2.25552 14.6944 2.25552 15.3333 2.87067 15.3333H4.71613V15.6528C4.71613 15.7375 4.72693 15.8188 4.74616 15.8787C4.76538 15.9386 4.79146 15.9722 4.81865 15.9722C4.84585 15.9722 4.87192 15.9386 4.89115 15.8787C4.91038 15.8188 4.92118 15.7375 4.92118 15.6528V15.3333H5.12623V15.6528C5.12623 15.7375 5.13703 15.8188 5.15626 15.8787C5.17549 15.9386 5.20156 15.9722 5.22875 15.9722C5.25595 15.9722 5.28202 15.9386 5.30125 15.8787C5.32048 15.8188 5.33128 15.7375 5.33128 15.6528V15.0139C5.33128 14.9292 5.32048 14.8479 5.30125 14.788C5.28202 14.7281 5.25595 14.6944 5.22875 14.6944Z" fill="white"/></g><defs><clipPath id="clip0_76_476"><rect width="7.38182" height="23" fill="white"/></clipPath></defs></svg>