<svg width="13" height="17" viewBox="0 0 13 17" fill="none" xmlns="http://www.w3.org/2000/svg">
  <g clip-path="url(#clip0_2005_334)">
    <path d="M3.7924 0H2.1674C1.59276 0 1.04166 0.298511 0.635334 0.829864C0.229006 1.36122 0.000732422 2.08189 0.000732422 2.83333V4.95833C0.000732422 5.70978 0.229006 6.43045 0.635334 6.9618C1.04166 7.49316 1.59276 7.79167 2.1674 7.79167H3.7924C4.36703 7.79167 4.91813 7.49316 5.32446 6.9618C5.73079 6.43045 5.95906 5.70978 5.95906 4.95833V2.83333C5.95906 2.08189 5.73079 1.36122 5.32446 0.829864C4.91813 0.298511 4.36703 0 3.7924 0V0ZM4.87573 4.95833C4.87573 5.33406 4.76159 5.69439 4.55843 5.96007C4.35527 6.22574 4.07972 6.375 3.7924 6.375H2.1674C1.88008 6.375 1.60453 6.22574 1.40137 5.96007C1.1982 5.69439 1.08407 5.33406 1.08407 4.95833V2.83333C1.08407 2.45761 1.1982 2.09728 1.40137 1.8316C1.60453 1.56592 1.88008 1.41667 2.1674 1.41667H3.7924C4.07972 1.41667 4.35527 1.56592 4.55843 1.8316C4.76159 2.09728 4.87573 2.45761 4.87573 2.83333V4.95833Z" fill="#FFFFFF"/>
    <path d="M10.4545 0H8.54545C7.87036 0 7.22291 0.306493 6.74555 0.852053C6.26818 1.39761 6 2.13755 6 2.90909L6 5.09091C6 5.86245 6.26818 6.60239 6.74555 7.14795C7.22291 7.69351 7.87036 8 8.54545 8H10.4545C11.1296 8 11.7771 7.69351 12.2545 7.14795C12.7318 6.60239 13 5.86245 13 5.09091V2.90909C13 2.13755 12.7318 1.39761 12.2545 0.852053C11.7771 0.306493 11.1296 0 10.4545 0V0ZM11.7273 5.09091C11.7273 5.47668 11.5932 5.84665 11.3545 6.11943C11.1158 6.39221 10.7921 6.54545 10.4545 6.54545H8.54545C8.20791 6.54545 7.88418 6.39221 7.6455 6.11943C7.40682 5.84665 7.27273 5.47668 7.27273 5.09091V2.90909C7.27273 2.52332 7.40682 2.15335 7.6455 1.88057C7.88418 1.60779 8.20791 1.45455 8.54545 1.45455H10.4545C10.7921 1.45455 11.1158 1.60779 11.3545 1.88057C11.5932 2.15335 11.7273 2.52332 11.7273 2.90909V5.09091Z" fill="#FFFFFF"/>
    <path d="M3.7924 9.20825H2.1674C1.59276 9.20825 1.04166 9.50676 0.635334 10.0381C0.229006 10.5695 0.000732422 11.2901 0.000732422 12.0416L0.000732422 14.1666C0.000732422 14.918 0.229006 15.6387 0.635334 16.1701C1.04166 16.7014 1.59276 16.9999 2.1674 16.9999H3.7924C4.36703 16.9999 4.91813 16.7014 5.32446 16.1701C5.73079 15.6387 5.95906 14.918 5.95906 14.1666V12.0416C5.95906 11.2901 5.73079 10.5695 5.32446 10.0381C4.91813 9.50676 4.36703 9.20825 3.7924 9.20825ZM4.87573 14.1666C4.87573 14.5423 4.76159 14.9026 4.55843 15.1683C4.35527 15.434 4.07972 15.5833 3.7924 15.5833H2.1674C1.88008 15.5833 1.60453 15.434 1.40137 15.1683C1.1982 14.9026 1.08407 14.5423 1.08407 14.1666V12.0416C1.08407 11.6659 1.1982 11.3055 1.40137 11.0399C1.60453 10.7742 1.88008 10.6249 2.1674 10.6249H3.7924C4.07972 10.6249 4.35527 10.7742 4.55843 11.0399C4.76159 11.3055 4.87573 11.6659 4.87573 12.0416V14.1666Z" fill="#FFFFFF"/>
    <path d="M10.8344 9.20825H9.20939C8.63476 9.20825 8.08366 9.50676 7.67733 10.0381C7.271 10.5695 7.04272 11.2901 7.04272 12.0416V14.1666C7.04272 14.918 7.271 15.6387 7.67733 16.1701C8.08366 16.7014 8.63476 16.9999 9.20939 16.9999H10.8344C11.409 16.9999 11.9601 16.7014 12.3665 16.1701C12.7728 15.6387 13.0011 14.918 13.0011 14.1666V12.0416C13.0011 11.2901 12.7728 10.5695 12.3665 10.0381C11.9601 9.50676 11.409 9.20825 10.8344 9.20825ZM11.9177 14.1666C11.9177 14.5423 11.8036 14.9026 11.6004 15.1683C11.3973 15.434 11.1217 15.5833 10.8344 15.5833H9.20939C8.92207 15.5833 8.64652 15.434 8.44336 15.1683C8.24019 14.9026 8.12606 14.5423 8.12606 14.1666V12.0416C8.12606 11.6659 8.24019 11.3055 8.44336 11.0399C8.64652 10.7742 8.92207 10.6249 9.20939 10.6249H10.8344C11.1217 10.6249 11.3973 10.7742 11.6004 11.0399C11.8036 11.3055 11.9177 11.6659 11.9177 12.0416V14.1666Z" fill="#FFFFFF"/>
  </g>
  <defs>
    <clipPath id="clip0_2005_334">
      <rect width="13" height="17" fill="white"/>
    </clipPath>
  </defs>
</svg>
