<svg width="6" height="29" viewBox="0 0 6 29" fill="none" xmlns="http://www.w3.org/2000/svg"><g clip-path="url(#clip0_76_923)"><path d="M5.40225 16.387L5.45955 13.4444C5.50455 11.1333 5.52705 9.97776 5.44525 9.50008C5.401 9.24169 5.34082 9.08336 5.2765 9.05606C5.15757 9.00557 5.00822 9.82733 4.70952 11.4709C4.55505 12.3209 4.47782 12.7458 4.39165 12.8117C4.34392 12.848 4.29527 12.8106 4.25117 12.7034C4.17162 12.5098 4.11857 11.9845 4.01247 10.9337L3.45327 5.39511C3.2528 3.40954 3.15255 2.41675 3 2.41675C2.84745 2.41675 2.7472 3.40954 2.54672 5.39512L1.98752 10.9337C1.88142 11.9845 1.82838 12.5098 1.74881 12.7034C1.70473 12.8106 1.65608 12.848 1.60834 12.8117C1.52218 12.7458 1.44494 12.3209 1.29047 11.4709C0.991769 9.82733 0.842419 9.00557 0.723497 9.05606C0.659164 9.08336 0.598994 9.24169 0.554747 9.50008C0.472949 9.97776 0.495449 11.1333 0.540452 13.4444L0.597749 16.387C0.692162 21.2356 0.739369 23.6598 1.03502 25.1216C1.33068 26.5834 1.77379 26.5834 2.66002 26.5834H3.33997C4.2262 26.5834 4.66932 26.5834 4.96497 25.1216C5.26062 23.6598 5.30782 21.2356 5.40225 16.387Z" stroke="#F4DF08" stroke-width="1.5"/><path opacity="0.5" d="M2.25 21.75H3.75" stroke="#F4DF08" stroke-width="1.5" stroke-linecap="round"/></g><defs><clipPath id="clip0_76_923"><rect width="6" height="29" fill="white"/></clipPath></defs></svg>