<svg width="14" height="18" viewBox="0 0 14 18" fill="none" xmlns="http://www.w3.org/2000/svg"><g clip-path="url(#clip0_2005_339)"><path fill-rule="evenodd" clip-rule="evenodd" d="M6.42484 3.59972C6.52529 3.43111 6.70764 3.1875 7.0003 3.1875C7.29296 3.1875 7.47531 3.43111 7.57576 3.59972C7.6716 3.76066 7.76814 3.98343 7.86713 4.21183L7.93801 4.37527C7.95131 4.40594 7.96175 4.43008 7.97091 4.45073C7.98684 4.45553 8.00538 4.46094 8.02854 4.46768L8.16732 4.50803C8.35853 4.56359 8.54858 4.61879 8.69442 4.69271C8.85553 4.77433 9.07388 4.93327 9.15799 5.28121C9.24071 5.623 9.13635 5.91252 9.04523 6.0986C8.96094 6.27081 8.83279 6.4634 8.70159 6.66056L8.60785 6.80146C8.58773 6.83171 8.57256 6.85451 8.55984 6.87425C8.56153 6.9015 8.56393 6.93325 8.56713 6.9757L8.58125 7.16279C8.6012 7.42674 8.62045 7.6818 8.61339 7.88588C8.60598 8.09978 8.56603 8.42363 8.34016 8.64405C8.10718 8.87145 7.84987 8.82195 7.68671 8.7618C7.53638 8.70645 7.3587 8.60115 7.17979 8.49517L7.04983 8.41823C7.03028 8.40668 7.0143 8.39723 7.0003 8.38905C6.9863 8.39723 6.97032 8.40668 6.95078 8.41823L6.82081 8.49517C6.6419 8.60115 6.46422 8.70645 6.31389 8.7618C6.15073 8.82195 5.89343 8.87145 5.66042 8.64405C5.43457 8.42363 5.39464 8.09978 5.38723 7.88588C5.38016 7.6818 5.39942 7.42676 5.41936 7.16282L5.43346 6.9757C5.43666 6.93325 5.43904 6.9015 5.44079 6.87425C5.42801 6.85451 5.41285 6.83171 5.39274 6.80146L5.29902 6.66056C5.16782 6.4634 5.03967 6.27081 4.95534 6.0986C4.86423 5.91252 4.75992 5.623 4.84259 5.28121C4.92674 4.93327 5.14508 4.77433 5.30616 4.69271C5.45205 4.6188 5.64209 4.56359 5.83331 4.50803L5.97206 4.46768C5.99522 4.46094 6.01377 4.45553 6.02969 4.45073C6.03885 4.43008 6.04929 4.40594 6.06259 4.37527L6.13347 4.21182C6.23246 3.98343 6.329 3.76066 6.42484 3.59972ZM7.0003 4.52586C6.96641 4.60135 6.92867 4.68827 6.88422 4.79077L6.82688 4.92304L6.81387 4.9535C6.76808 5.0612 6.69218 5.23958 6.56572 5.36303C6.43657 5.48907 6.28123 5.53244 6.1904 5.5578L6.16514 5.56494L6.05378 5.59734C5.95158 5.62706 5.86834 5.65132 5.79718 5.67431C5.84349 5.74759 5.90358 5.83856 5.9818 5.95616L6.05775 6.07029L6.07519 6.09631C6.13819 6.18955 6.23981 6.3401 6.28683 6.53446C6.33332 6.72652 6.31728 6.92432 6.30718 7.04912L6.30438 7.0842L6.29289 7.2365C6.28228 7.37769 6.27399 7.49039 6.26851 7.58205C6.32929 7.54763 6.39842 7.50668 6.48055 7.45807L6.58485 7.39635L6.60836 7.38218C6.69207 7.33142 6.83773 7.2431 7.0003 7.2431C7.16288 7.2431 7.30853 7.33141 7.39224 7.38217L7.41575 7.39635L7.52005 7.45808C7.60218 7.50668 7.67131 7.54763 7.73209 7.58205C7.72661 7.49039 7.71833 7.37769 7.70771 7.2365L7.69622 7.0842L7.69342 7.04912C7.68333 6.92432 7.66728 6.72652 7.71378 6.53446C7.76079 6.3401 7.86241 6.18955 7.92541 6.09631L7.94285 6.07029L8.0188 5.95615C8.09703 5.83856 8.15711 5.74759 8.20343 5.67431C8.13226 5.65132 8.04902 5.62706 7.94682 5.59734L7.83546 5.56494L7.8102 5.5578C7.71938 5.53244 7.56403 5.48908 7.43488 5.36303C7.30842 5.23958 7.23253 5.0612 7.18673 4.9535L7.17373 4.92304L7.11638 4.79077C7.07193 4.68827 7.03419 4.60135 7.0003 4.52586ZM6.26489 7.88363C6.26489 7.88363 6.26478 7.88295 6.26454 7.8813L6.26489 7.88363ZM7.73571 7.88363L7.73606 7.8813C7.73583 7.88295 7.73571 7.88363 7.73571 7.88363Z" fill="#979A9E"/><path fill-rule="evenodd" clip-rule="evenodd" d="M4.37488 1.20539C5.05323 1.05824 5.93472 0.9375 7.00093 0.9375C8.06709 0.9375 8.94857 1.05824 9.62692 1.20539L9.70562 1.22237C10.2949 1.3492 10.7847 1.45462 11.1677 2.06106C11.4133 2.45001 11.4925 2.87035 11.5108 3.33991L11.7976 3.46284C12.0678 3.5786 12.3045 3.68006 12.4924 3.79242C12.6955 3.91389 12.8816 4.07035 13.0239 4.32416C13.1662 4.57797 13.2228 4.85446 13.2482 5.14058C13.2716 5.40526 13.2716 5.72616 13.2716 6.09229V6.20121C13.2716 6.50255 13.2716 6.76874 13.2543 6.99134C13.2356 7.23261 13.1941 7.46716 13.0903 7.6938C12.9866 7.92052 12.8473 8.0811 12.6923 8.21932C12.5494 8.3469 12.3684 8.47612 12.1635 8.62245L10.6231 9.72277C10.3085 10.5187 9.87618 11.2285 9.28171 11.7411C8.77147 12.181 8.16054 12.4596 7.43832 12.539V14.0625H8.2726C8.75922 14.0625 9.17817 14.5041 9.2736 15.1176L9.40117 15.9375H10.5008C10.7424 15.9375 10.9383 16.1893 10.9383 16.5C10.9383 16.8106 10.7424 17.0625 10.5008 17.0625H3.50082C3.25919 17.0625 3.06332 16.8106 3.06332 16.5C3.06332 16.1893 3.25919 15.9375 3.50082 15.9375H4.60049L4.72803 15.1176C4.82346 14.5041 5.24243 14.0625 5.72904 14.0625H6.56332V12.539C5.84115 12.4595 5.23028 12.181 4.72008 11.7411C4.12565 11.2285 3.69342 10.5189 3.37877 9.723L1.83809 8.62245C1.63319 8.47612 1.45222 8.3469 1.30927 8.21932C1.15435 8.0811 1.01504 7.92052 0.911299 7.6938C0.807559 7.46716 0.766032 7.23261 0.747278 6.99134C0.729976 6.76873 0.729982 6.50256 0.729988 6.2012L0.729982 6.09228C0.729959 5.72616 0.729935 5.40526 0.753432 5.14058C0.778836 4.85446 0.835425 4.57797 0.9777 4.32416C1.11998 4.07035 1.30609 3.91389 1.50918 3.79242C1.69704 3.68006 1.93382 3.5786 2.20398 3.46284L2.49101 3.33982C2.50928 2.8703 2.58853 2.44998 2.83414 2.06106C3.21712 1.45462 3.70692 1.3492 4.29622 1.22237L4.37488 1.20539ZM5.49282 15.9375H8.50885L8.41557 15.3382C8.40198 15.2506 8.34213 15.1875 8.2726 15.1875H5.72904C5.65952 15.1875 5.59967 15.2506 5.58604 15.3382L5.49282 15.9375ZM2.51037 4.51738L2.50243 4.52079C2.20411 4.64864 2.01543 4.7304 1.87826 4.81245C1.75128 4.88839 1.71043 4.94113 1.68755 4.98195C1.66466 5.02277 1.63867 5.08927 1.62279 5.26816C1.60563 5.46143 1.60498 5.71742 1.60499 6.12173V6.17613C1.60499 6.51002 1.6055 6.71944 1.61794 6.87947C1.62941 7.027 1.64831 7.08589 1.66543 7.1233C1.68255 7.16071 1.71341 7.21055 1.80815 7.29509C1.91092 7.3868 2.05306 7.48906 2.28007 7.6512L2.90172 8.09527C2.6523 6.91782 2.55212 5.65761 2.51037 4.51738ZM11.1001 8.09512C11.3495 6.91773 11.4497 5.65762 11.4914 4.51747L11.4992 4.52079C11.7975 4.64864 11.9862 4.7304 12.1234 4.81245C12.2503 4.88839 12.2912 4.94113 12.314 4.98195C12.337 5.02277 12.3629 5.08927 12.3788 5.26816C12.3959 5.46143 12.3966 5.71742 12.3966 6.12173V6.17613C12.3966 6.51002 12.3961 6.71944 12.3836 6.87947C12.3722 7.027 12.3533 7.08589 12.3362 7.1233C12.3191 7.16071 12.2882 7.21055 12.1935 7.29509C12.0907 7.3868 11.9485 7.48906 11.7216 7.6512L11.1001 8.09512ZM7.00093 2.0625C5.98628 2.0625 5.15351 2.17739 4.52046 2.31472C3.81642 2.46744 3.66853 2.52457 3.51342 2.77018C3.36056 3.01224 3.34605 3.24117 3.37743 4.25754C3.42974 5.95153 3.60354 7.77952 4.14181 9.1698C4.4075 9.85605 4.75488 10.4165 5.20747 10.8067C5.65714 11.1946 6.23729 11.4375 7.00093 11.4375C7.76452 11.4375 8.34464 11.1946 8.79433 10.8067C9.24694 10.4165 9.59432 9.85605 9.86002 9.1698C10.3983 7.77952 10.5721 5.95153 10.6244 4.25754C10.6557 3.24117 10.6412 3.01224 10.4884 2.77018C10.3333 2.52457 10.1854 2.46744 9.48138 2.31472C8.84829 2.17739 8.01552 2.0625 7.00093 2.0625Z" fill="#979A9E"/></g><defs><clipPath id="clip0_2005_339"><rect width="14" height="18" fill="white"/></clipPath></defs></svg>