<svg width="8" height="24" viewBox="0 0 8 24" fill="none" xmlns="http://www.w3.org/2000/svg"><g clip-path="url(#clip0_76_470)"><path d="M6.56162 3.33331H0.820202C0.602671 3.33331 0.394049 3.61426 0.240232 4.11436C0.0864139 4.61446 0 5.29274 0 5.99998L0 8.99998H7.38182V5.99998C7.38182 5.29274 7.2954 4.61446 7.14159 4.11436C6.98777 3.61426 6.77915 3.33331 6.56162 3.33331Z" fill="#007A3D"/><path d="M0 18C0 18.7072 0.0864139 19.3855 0.240232 19.8856C0.394049 20.3857 0.602671 20.6667 0.820202 20.6667H6.56162C6.77915 20.6667 6.98777 20.3857 7.14159 19.8856C7.2954 19.3855 7.38182 18.7072 7.38182 18V15H0V18Z" fill="#CE1126"/><path d="M0 9H7.38182V15H0V9Z" fill="#EEEEEE"/><path d="M0.247086 4.09198C0.168795 4.34024 0.106595 4.63698 0.0641574 4.96469C0.0217198 5.29239 -9.51118e-05 5.64441 3.11703e-07 5.99998V18C3.11703e-07 18.748 0.0947337 19.4233 0.247086 19.908L1.84545 15V8.99998L0.247086 4.09198Z" fill="#141414"/></g><defs><clipPath id="clip0_76_470"><rect width="7.38182" height="24" fill="white"/></clipPath></defs></svg>