<svg width="8" height="13" viewBox="0 0 8 13" fill="none" xmlns="http://www.w3.org/2000/svg"><path d="M1.09196 8.28519C0.808645 7.68708 0.666992 7.38803 0.666992 6.50002C0.666992 5.61201 0.808645 5.31297 1.09196 4.71487C1.65765 3.52062 2.60636 2.16669 4.00033 2.16669C5.39429 2.16669 6.34299 3.52062 6.90869 4.71487C7.19199 5.31297 7.33366 5.61201 7.33366 6.50002C7.33366 7.38803 7.19199 7.68708 6.90869 8.28519C6.34299 9.4794 5.39429 10.8334 4.00033 10.8334C2.60636 10.8334 1.65765 9.4794 1.09196 8.28519Z" stroke="white" stroke-width="0.815007"/><path d="M5 6.5C5 7.39749 4.5523 8.125 4 8.125C3.4477 8.125 3 7.39749 3 6.5C3 5.60251 3.4477 4.875 4 4.875C4.5523 4.875 5 5.60251 5 6.5Z" stroke="white" stroke-width="0.815007"/></svg>