<svg width="7" height="25" viewBox="0 0 7 25" fill="none" xmlns="http://www.w3.org/2000/svg"><path fill-rule="evenodd" clip-rule="evenodd" d="M0.790989 14.8438C0.90019 14.8438 0.988716 15.1935 0.988716 15.625C0.988716 17.1202 0.989136 18.163 1.01591 18.9499C1.04192 19.7143 1.08949 20.119 1.16246 20.4073C1.23542 20.6956 1.33786 20.8835 1.53131 20.9864C1.73045 21.0921 1.99438 21.0937 2.37281 21.0937H3.95463C4.33305 21.0937 4.59698 21.0921 4.79613 20.9864C4.98958 20.8835 5.09201 20.6956 5.16498 20.4073C5.23795 20.119 5.28551 19.7143 5.31154 18.9499C5.33829 18.163 5.33872 17.1202 5.33872 15.625C5.33872 15.1935 5.42725 14.8438 5.53644 14.8438C5.64564 14.8438 5.73417 15.1935 5.73417 15.625V15.6822C5.73417 17.1068 5.73417 18.255 5.70346 19.1581C5.67156 20.0957 5.6033 20.8851 5.44462 21.5121C5.28591 22.1392 5.08613 22.4089 4.84883 22.5349C4.62025 22.6562 4.32965 22.6562 3.9691 22.6562H2.35834C1.9978 22.6562 1.70718 22.6562 1.47862 22.5349C1.24132 22.4089 1.04151 22.1392 0.882827 21.5122C0.724139 20.8851 0.655886 20.0957 0.623981 19.1581C0.593251 18.255 0.593257 17.1068 0.593262 15.6822C0.593262 15.6631 0.593262 15.6441 0.593262 15.625C0.593262 15.1935 0.681788 14.8438 0.790989 14.8438Z" fill="#FFEC29"/><path fill-rule="evenodd" clip-rule="evenodd" d="M3.16365 17.4479C3.21917 17.4479 3.27211 17.3557 3.30957 17.1939L4.36412 12.6366C4.4378 12.3181 4.43222 11.824 4.35162 11.5328C4.27103 11.2417 4.14596 11.2638 4.07227 11.5822L3.36138 14.6544V3.125C3.36138 2.69353 3.27285 2.34375 3.16365 2.34375C3.05445 2.34375 2.96592 2.69353 2.96592 3.125V14.6544L2.25504 11.5822C2.18135 11.2638 2.05628 11.2417 1.97569 11.5328C1.89509 11.824 1.88949 12.3181 1.96318 12.6366L3.01773 17.1939C3.05519 17.3557 3.10813 17.4479 3.16365 17.4479Z" fill="#F4DF08"/></svg>