
<svg width="5" height="18" viewBox="0 0 5 18" fill="none" xmlns="http://www.w3.org/2000/svg"><g clip-path="url(#clip0_2006_627)"><path opacity="0.5" d="M0.416992 9C0.416992 5.46446 0.416992 3.6967 0.72209 2.59835C1.02719 1.5 1.51823 1.5 2.50033 1.5C3.48241 1.5 3.97347 1.5 4.27855 2.59835C4.58366 3.6967 4.58366 5.46446 4.58366 9C4.58366 12.5355 4.58366 14.3033 4.27855 15.4016C3.97347 16.5 3.48241 16.5 2.50033 16.5C1.51823 16.5 1.02719 16.5 0.72209 15.4016C0.416992 14.3033 0.416992 12.5355 0.416992 9Z" stroke="#252A30" stroke-width="1.125"/><path d="M3.125 9H2.5M2.5 9H1.875M2.5 9V6.75M2.5 9V11.25" stroke="#252A30" stroke-width="1.125" stroke-linecap="round"/></g><defs><clipPath id="clip0_2006_627"><rect width="5" height="18" fill="white"/></clipPath></defs></svg>