<svg width="16" height="20" viewBox="0 0 16 20" fill="none" xmlns="http://www.w3.org/2000/svg"><path fill-rule="evenodd" clip-rule="evenodd" d="M13.8707 6.35299L13.4557 5.45291C13.1047 4.69131 12.3267 4.42858 11.7166 4.86558V4.86558C11.4262 5.07943 11.0796 5.14011 10.7534 5.03422C10.4271 4.92833 10.148 4.66458 9.97749 4.30112C9.8678 4.0701 9.80886 3.80697 9.80662 3.53835V3.53835C9.81652 3.10766 9.68653 2.69031 9.44628 2.38137C9.20602 2.07243 8.87595 1.8982 8.53126 1.89838H7.69526C7.35757 1.89837 7.0338 2.06657 6.79559 2.36577C6.55738 2.66496 6.42438 3.07047 6.426 3.49258V3.49258C6.41599 4.36408 5.84791 5.06399 5.15064 5.0639C4.93573 5.06111 4.72523 4.98743 4.54042 4.85032V4.85032C3.9303 4.41332 3.15233 4.67606 2.80129 5.43766L2.35582 6.35299C2.0052 7.11364 2.21253 8.08548 2.81959 8.5269V8.5269C3.21419 8.81168 3.45728 9.33797 3.45728 9.90753C3.45728 10.4771 3.21419 11.0034 2.81959 11.2882V11.2882C2.2133 11.7266 2.00574 12.6961 2.35582 13.4544V13.4544L2.77688 14.3621C2.94136 14.7331 3.21733 15.0069 3.54372 15.1228C3.87012 15.2388 4.22002 15.1874 4.51601 14.98V14.98C4.80698 14.7678 5.15372 14.7096 5.47915 14.8185C5.80459 14.9273 6.08175 15.1942 6.24904 15.5597C6.35872 15.7907 6.41767 16.0539 6.4199 16.3225V16.3225C6.4199 17.2029 6.9909 17.9167 7.69526 17.9167H8.53126C9.23325 17.9167 9.80327 17.2076 9.80662 16.3301V16.3301C9.80499 15.9067 9.93884 15.5 10.1784 15.2006C10.4179 14.9012 10.7432 14.7339 11.082 14.7359C11.2964 14.7431 11.506 14.8164 11.6922 14.9495V14.9495C12.3007 15.3878 13.0782 15.1286 13.4313 14.3698V14.3698L13.8707 13.4544C14.0408 13.0896 14.0874 12.655 14.0004 12.247C13.9133 11.8389 13.6998 11.4911 13.4069 11.2805V11.2805C13.1141 11.0699 12.9005 10.7221 12.8135 10.3141C12.7264 9.90607 12.7731 9.47149 12.9432 9.10661C13.0538 8.86526 13.2138 8.66514 13.4069 8.5269V8.5269C14.0104 8.08572 14.2172 7.11956 13.8707 6.36062V6.36062V6.35299Z" stroke="#84878B" stroke-width="1.24658" stroke-linecap="round" stroke-linejoin="round"/><ellipse cx="8.11632" cy="9.90755" rx="1.75744" ry="2.1968" stroke="#84878B" stroke-width="1.24658" stroke-linecap="round" stroke-linejoin="round"/></svg>