<svg width="17" height="20" viewBox="0 0 17 20" fill="none" xmlns="http://www.w3.org/2000/svg"><path fill-rule="evenodd" clip-rule="evenodd" d="M14.6277 6.35299L14.1901 5.45291C13.8199 4.69131 12.9995 4.42858 12.3561 4.86558V4.86558C12.0499 5.07943 11.6844 5.14011 11.3404 5.03422C10.9963 4.92833 10.7019 4.66458 10.5221 4.30112C10.4065 4.0701 10.3443 3.80697 10.342 3.53835V3.53835C10.3524 3.10766 10.2153 2.69031 9.96196 2.38137C9.70859 2.07243 9.36052 1.8982 8.99703 1.89838H8.11543C7.75932 1.89837 7.41789 2.06657 7.16669 2.36577C6.91549 2.66496 6.77523 3.07047 6.77694 3.49258V3.49258C6.76638 4.36408 6.16732 5.06399 5.43201 5.0639C5.20539 5.06111 4.9834 4.98743 4.78851 4.85032V4.85032C4.14511 4.41332 3.32471 4.67606 2.95451 5.43766L2.48475 6.35299C2.115 7.11364 2.33364 8.08548 2.97382 8.5269V8.5269C3.38995 8.81168 3.64629 9.33797 3.64629 9.90753C3.64629 10.4771 3.38995 11.0034 2.97382 11.2882V11.2882C2.33445 11.7266 2.11558 12.6961 2.48475 13.4544V13.4544L2.92877 14.3621C3.10223 14.7331 3.39325 15.0069 3.73745 15.1228C4.08164 15.2388 4.45063 15.1874 4.76277 14.98V14.98C5.06961 14.7678 5.43526 14.7096 5.77845 14.8185C6.12163 14.9273 6.41391 15.1942 6.59032 15.5597C6.70599 15.7907 6.76815 16.0539 6.7705 16.3225V16.3225C6.7705 17.2029 7.37265 17.9167 8.11543 17.9167H8.99703C9.73731 17.9167 10.3384 17.2076 10.342 16.3301V16.3301C10.3402 15.9067 10.4814 15.5 10.734 15.2006C10.9866 14.9012 11.3297 14.7339 11.6869 14.7359C11.913 14.7431 12.134 14.8164 12.3304 14.9495V14.9495C12.9721 15.3878 13.792 15.1286 14.1644 14.3698V14.3698L14.6277 13.4544C14.8071 13.0896 14.8563 12.655 14.7645 12.247C14.6727 11.8389 14.4474 11.4911 14.1386 11.2805V11.2805C13.8298 11.0699 13.6046 10.7221 13.5128 10.3141C13.421 9.90607 13.4702 9.47149 13.6496 9.10661C13.7662 8.86526 13.935 8.66514 14.1386 8.5269V8.5269C14.775 8.08572 14.9931 7.11956 14.6277 6.36062V6.36062V6.35299Z" stroke="#84878B" stroke-width="1.24658" stroke-linecap="round" stroke-linejoin="round"/><ellipse cx="8.5596" cy="9.90755" rx="1.8533" ry="2.1968" stroke="#84878B" stroke-width="1.24658" stroke-linecap="round" stroke-linejoin="round"/></svg>