<svg width="8" height="23" viewBox="0 0 8 23" fill="none" xmlns="http://www.w3.org/2000/svg"><g clip-path="url(#clip0_76_463)"><path d="M1.64038 19.8056H6.56159C6.77912 19.8056 6.98775 19.5363 7.14156 19.0571C7.29538 18.5778 7.38179 17.9278 7.38179 17.25V14.6945H1.64038V19.8056Z" fill="#008000"/><path d="M6.56159 3.19446H1.64038V8.30557H7.38179V5.75001C7.38179 5.07224 7.29538 4.42222 7.14156 3.94296C6.98775 3.4637 6.77912 3.19446 6.56159 3.19446Z" fill="#EEEEEE"/><path d="M7.38182 8.30557H1.84545V3.19446H0.820202C0.602671 3.19446 0.394049 3.4637 0.240232 3.94296C0.0864139 4.42222 0 5.07224 0 5.75001L0 17.25C0 17.9278 0.0864139 18.5778 0.240232 19.0571C0.394049 19.5363 0.602671 19.8056 0.820202 19.8056H1.84545V14.6945H7.38182V8.30557Z" fill="#DB161B"/><path d="M0.743437 5.40054C0.807618 5.76279 0.807618 5.90462 0.788958 5.93656C0.770504 5.96851 0.740156 5.87906 0.676181 5.51681C0.612 5.15456 0.538387 4.65751 0.556841 4.62556C0.575501 4.59298 0.679256 5.03892 0.743437 5.40054ZM1.13119 5.17756C1.06701 5.53981 1.0301 5.85926 1.04876 5.8912C1.06721 5.92315 1.13426 5.65545 1.19844 5.29384C1.26242 4.93159 1.29953 4.61215 1.28087 4.5802C1.26221 4.54826 1.19516 4.81595 1.13119 5.17756ZM1.01574 5.76023L0.954844 4.85173L0.949103 4.8479C0.970223 4.81659 0.986832 4.7674 0.986832 4.69648C0.986832 4.59426 0.95669 4.51184 0.919575 4.51184C0.882461 4.51184 0.852319 4.5949 0.852319 4.69712C0.852319 4.76612 0.867698 4.82042 0.888203 4.85237L0.829968 5.76981L1.01574 5.76023Z" fill="#EEEEEE"/><path d="M1.37446 7.51717C1.31889 7.37278 1.09785 6.7767 0.992862 6.42084C1.00229 6.31861 1.00783 6.20873 1.00557 6.09117H1.00906V6.09628H1.19176V6.20617H1.41609V5.86692H1.19176V5.97681H1.00927V5.98192H1.00291V5.81006H0.836203V5.98192H0.768947V5.99214H0.637509V5.85159H0.426102V6.22086H0.637509V6.08159H0.768947V6.09181H0.825541L0.818159 6.33075C0.818159 6.33075 0.605111 6.36014 0.547902 6.38889C0.406827 6.45853 0.451734 6.58823 0.567177 6.70834C0.620285 6.76328 0.673188 6.785 0.72322 6.79331C0.641815 7.0642 0.475724 7.46606 0.43574 7.53698C0.390834 7.61684 0.390834 7.7165 0.477365 7.65709C0.56123 7.59895 0.755208 7.06548 0.82267 6.79586L0.881109 6.7882C0.911867 6.78436 0.936268 6.72431 0.956773 6.64509C1.04433 6.96773 1.21596 7.44625 1.28485 7.57659C1.35847 7.7165 1.39292 7.71331 1.41896 7.69989C1.445 7.68648 1.43208 7.66667 1.37446 7.51717Z" fill="#EEEEEE"/></g><defs><clipPath id="clip0_76_463"><rect width="7.38182" height="23" fill="white"/></clipPath></defs></svg>