<svg width="18" height="18" viewBox="0 0 18 18" fill="none" xmlns="http://www.w3.org/2000/svg"><g clip-path="url(#clip0_2014_1025)"><path opacity="0.5" d="M1.50049 9C1.50049 5.46446 1.50049 3.6967 2.59884 2.59835C3.69719 1.5 5.46495 1.5 9.00049 1.5C12.536 1.5 14.3038 1.5 15.4021 2.59835C16.5005 3.6967 16.5005 5.46446 16.5005 9C16.5005 12.5355 16.5005 14.3033 15.4021 15.4016C14.3038 16.5 12.536 16.5 9.00049 16.5C5.46495 16.5 3.69719 16.5 2.59884 15.4016C1.50049 14.3033 1.50049 12.5355 1.50049 9Z" stroke="#252A30" stroke-width="1.125"/><path d="M11.25 9H9M9 9H6.75M9 9V6.75M9 9V11.25" stroke="#252A30" stroke-width="1.125" stroke-linecap="round"/></g><defs><clipPath id="clip0_2014_1025"><rect width="18" height="18" fill="white"/></clipPath></defs></svg>