<svg width="8" height="24" viewBox="0 0 8 24" fill="none" xmlns="http://www.w3.org/2000/svg"><g clip-path="url(#clip0_76_460)"><path d="M6.56168 3.33331H2.25562V20.6666H6.56168C6.77921 20.6666 6.98783 20.3857 7.14165 19.8856C7.29546 19.3855 7.38188 18.7072 7.38188 18V5.99998C7.38188 5.29274 7.29546 4.61446 7.14165 4.11436C6.98783 3.61426 6.77921 3.33331 6.56168 3.33331Z" fill="#8D1B3D"/><path d="M2.25556 18.7406L3.3413 17.778L2.25556 16.8146L3.3413 15.852L2.25556 14.8886L3.3413 13.926L2.25556 12.9626L3.3413 12L2.25556 11.0373L3.3413 10.0746L2.25556 9.11131L3.3413 8.14865L2.25556 7.18531L3.3413 6.22198L2.25556 5.25931L3.3413 4.29665L2.25556 3.33331H0.820202C0.602671 3.33331 0.394049 3.61426 0.240232 4.11436C0.0864139 4.61446 0 5.29274 0 5.99998L0 18C0 18.7072 0.0864139 19.3855 0.240232 19.8856C0.394049 20.3857 0.602671 20.6666 0.820202 20.6666H2.25556L3.3413 19.704L2.25556 18.7406Z" fill="#EEEEEE"/></g><defs><clipPath id="clip0_76_460"><rect width="7.38182" height="24" fill="white"/></clipPath></defs></svg>