<svg width="9" height="9" viewBox="0 0 9 9" fill="none" xmlns="http://www.w3.org/2000/svg"><g clip-path="url(#clip0_76_570)"><path d="M5.99971 9.00005H1.49971C1.34971 9.00005 1.23721 8.92505 1.16221 8.81255C1.08721 8.70005 1.08721 8.55005 1.16221 8.43755L3.41221 5.06255C3.56221 4.83755 3.89971 4.83755 4.04971 5.06255L6.26221 8.40005C6.33721 8.47505 6.37471 8.55005 6.37471 8.66255C6.37471 8.85005 6.22471 9.00005 5.99971 9.00005ZM2.21221 8.25005H5.32471L3.74971 5.92505L2.21221 8.25005Z" fill="#252A30"/><path d="M8.62402 6.375H5.62402C5.39902 6.375 5.24902 6.225 5.24902 6V3C5.24902 2.775 5.39902 2.625 5.62402 2.625H8.62402C8.84902 2.625 8.99902 2.775 8.99902 3V6C8.99902 6.225 8.84902 6.375 8.62402 6.375ZM5.99902 5.625H8.24902V3.375H5.99902V5.625Z" fill="#252A30"/><path d="M2.43652 4.875C1.08652 4.875 -0.000976562 3.7875 -0.000976562 2.4375C-0.000976562 1.0875 1.08652 0 2.43652 0C3.78652 0 4.87402 1.0875 4.87402 2.4375C4.87402 3.7875 3.78652 4.875 2.43652 4.875ZM2.43652 0.75C1.49902 0.75 0.749023 1.5 0.749023 2.4375C0.749023 3.375 1.49902 4.125 2.43652 4.125C3.37402 4.125 4.12402 3.375 4.12402 2.4375C4.12402 1.5 3.37402 0.75 2.43652 0.75Z" fill="#252A30"/></g><defs><clipPath id="clip0_76_570"><rect width="9" height="9" fill="white"/></clipPath></defs></svg>