<svg width="25" height="47" viewBox="0 0 25 47" fill="none" xmlns="http://www.w3.org/2000/svg"><path fill-rule="evenodd" clip-rule="evenodd" d="M8.33333 19.5835C8.33333 15.2573 10.1988 11.7502 12.5 11.7502C14.8011 11.7502 16.6667 15.2573 16.6667 19.5835V21.5418H17.7083C19.7219 21.5418 21.3542 24.6105 21.3542 28.396C21.3542 32.1815 19.7219 35.2502 17.7083 35.2502H16.6667C16.0914 35.2502 15.625 36.1269 15.625 37.2085C15.625 38.2901 16.0914 39.1668 16.6667 39.1668H17.7083C20.8725 39.1668 23.4375 34.3446 23.4375 28.396C23.4375 23.068 21.3797 18.6434 18.6767 17.7784C18.2148 12.146 15.6253 7.8335 12.5 7.8335C9.37473 7.8335 6.78522 12.146 6.32329 17.7784C3.62032 18.6434 1.5625 23.068 1.5625 28.396C1.5625 34.3446 4.12753 39.1668 7.29167 39.1668H8.33333C8.90862 39.1668 9.375 38.2901 9.375 37.2085C9.375 36.1269 8.90862 35.2502 8.33333 35.2502H7.29167C5.27812 35.2502 3.64583 32.1815 3.64583 28.396C3.64583 24.6105 5.27812 21.5418 7.29167 21.5418H8.33333V19.5835ZM16.3616 26.0321L13.2366 20.1571C12.8298 19.3923 12.1702 19.3923 11.7634 20.1571L8.63843 26.0321C8.23163 26.7968 8.23163 28.0368 8.63843 28.8016C9.04523 29.5663 9.70477 29.5663 10.1116 28.8016L11.4583 26.2696V37.2085C11.4583 38.2901 11.9247 39.1668 12.5 39.1668C13.0753 39.1668 13.5417 38.2901 13.5417 37.2085V26.2696L14.8884 28.8016C15.2952 29.5663 15.9548 29.5663 16.3616 28.8016C16.7683 28.0368 16.7683 26.7968 16.3616 26.0321Z" fill="#F4DF08"/></svg>