
<svg width="6" height="18" viewBox="0 0 6 18" fill="none" xmlns="http://www.w3.org/2000/svg"><g clip-path="url(#clip0_2006_631)"><path opacity="0.5" d="M0.5 9C0.5 5.46446 0.5 3.6967 0.866117 2.59835C1.23223 1.5 1.82149 1.5 3 1.5C4.1785 1.5 4.76777 1.5 5.13387 2.59835C5.5 3.6967 5.5 5.46446 5.5 9C5.5 12.5355 5.5 14.3033 5.13387 15.4016C4.76777 16.5 4.1785 16.5 3 16.5C1.82149 16.5 1.23223 16.5 0.866117 15.4016C0.5 14.3033 0.5 12.5355 0.5 9Z" stroke="#F4DF08" stroke-width="1.125"/><path d="M3.75 9H3M3 9H2.25M3 9V6.75M3 9V11.25" stroke="#F4DF08" stroke-width="1.125" stroke-linecap="round"/></g><defs><clipPath id="clip0_2006_631"><rect width="6" height="18" fill="white"/></clipPath></defs></svg>