<svg width="19" height="64" viewBox="0 0 19 64" fill="none" xmlns="http://www.w3.org/2000/svg"><path fill-rule="evenodd" clip-rule="evenodd" d="M8.63078 0.120264C8.12207 0.277361 7.34268 0.777419 6.82886 1.27635C5.74612 2.32775 4.69519 4.11097 3.74014 6.51708C3.28263 7.66966 2.27241 11.0778 1.93076 12.6212C0.811765 17.6762 0.189349 23.2146 0.027331 29.5581C-0.0724008 33.4645 0.0911372 35.4476 0.678183 37.4482C1.1391 39.0191 1.57944 39.7104 2.19826 39.8348C3.14801 40.0257 4.00852 38.3393 4.41761 35.4853C4.60977 34.1447 4.64525 33.5491 4.70001 30.7464C4.74513 28.4378 4.83693 26.8332 5.03954 24.8121C5.74011 17.8239 7.441 12.4789 9.59473 10.4972C10.6074 9.56546 11.9625 9.56621 12.9686 10.4992C14.3673 11.7962 15.5596 14.4068 16.4235 18.0638C17.306 21.7992 17.7908 26.258 17.8499 31.1841C17.9151 36.6097 17.4748 42.1456 16.5993 46.9077C15.9507 50.4355 14.949 53.8151 13.9033 56.0031C12.6397 58.6469 11.0283 60.2646 9.65813 60.2646C9.30591 60.2646 9.10879 60.5801 9.00375 61.3122C8.9078 61.981 8.9078 62.3004 9.00375 62.9692C9.14964 63.986 9.37895 64.1533 10.2621 63.8878C12.0938 63.3369 13.7497 61.199 15.2269 57.4772C15.6844 56.3246 16.6946 52.9165 17.0362 51.3731C18.3035 45.6482 18.9159 39.495 18.9956 31.6845C19.0051 30.7506 18.9989 30.1626 18.981 30.3031C18.9601 30.467 18.9419 30.113 18.926 29.2308C18.8974 27.6551 18.759 25.0524 18.6072 23.2342C17.734 12.7774 15.23 4.28033 12.1359 1.27447C11.0161 0.186555 9.75756 -0.227825 8.63078 0.120264ZM0.00616116 31.5594C0.00623531 32.3161 0.0123527 32.6095 0.0197306 32.2114C0.0271086 31.8134 0.0270344 31.1943 0.0195823 30.8356C0.0121302 30.477 0.00608701 30.8027 0.00616116 31.5594Z" fill="#52D9C1"/></svg>