<svg width="8" height="8" viewBox="0 0 8 8" fill="none" xmlns="http://www.w3.org/2000/svg"><path d="M7.99783 3.65633C7.99683 3.64117 7.994 3.62667 7.989 3.61233C7.98717 3.607 7.98583 3.60183 7.9835 3.59667C7.9755 3.57933 7.96533 3.563 7.95133 3.54917C7.95117 3.549 7.95117 3.549 7.95117 3.549L7 2.59767V1.66667C7 1.663 6.99817 1.65983 6.99783 1.65617C6.99683 1.6415 6.994 1.62733 6.98933 1.61333C6.9875 1.608 6.98617 1.60283 6.98367 1.59767C6.9755 1.58 6.96533 1.56317 6.951 1.54883L5.451 0.0488333C5.43667 0.0345 5.41983 0.0241667 5.402 0.0161667C5.397 0.0138333 5.392 0.0125 5.38683 0.0108333C5.37267 0.00583333 5.35817 0.003 5.343 0.00216667C5.33983 0.00166667 5.33683 0 5.33333 0H1.16667C1.07467 0 1 0.0746667 1 0.166667V2.59767L0.0488333 3.54883C0.0488333 3.54883 0.0486667 3.549 0.0485 3.54917C0.0345 3.56317 0.0245 3.5795 0.0165 3.59667C0.0141667 3.60183 0.0128333 3.607 0.011 3.61233C0.006 3.62667 0.003 3.64117 0.00216667 3.65633C0.00183333 3.66 0 3.663 0 3.66667V6.83333C0 6.92533 0.0746667 7 0.166667 7H1V7.83333C1 7.92533 1.07467 8 1.16667 8H6.83333C6.92533 8 7 7.92533 7 7.83333V7H7.83333C7.92533 7 8 6.92533 8 6.83333V3.66667C8 3.663 7.99817 3.66 7.99783 3.65633ZM7.431 3.5H7V3.069L7.431 3.5ZM6.431 1.5H5.5V0.569L6.431 1.5ZM1.33333 0.333333H5.16667V1.66667C5.16667 1.75867 5.24133 1.83333 5.33333 1.83333H6.66667V2.66667V3.5H1.33333V2.66667V0.333333ZM1 3.069V3.5H0.569L1 3.069ZM6.66667 7.66667H1.33333V7H6.66667V7.66667ZM7.66667 6.66667H0.333333V3.83333H1.16667H6.83333H7.66667V6.66667Z" fill="#252A30"/><path d="M5.59795 5.48903H5.84162V6.00753C5.81895 6.02453 5.78928 6.0382 5.75245 6.04853C5.71562 6.05903 5.67462 6.0642 5.62928 6.0642C5.55745 6.0642 5.49562 6.04537 5.44378 6.00753C5.39178 5.9697 5.34895 5.91737 5.31478 5.8502C5.28078 5.7832 5.25528 5.70487 5.23828 5.61503C5.22128 5.52537 5.21278 5.42953 5.21278 5.32753C5.21278 5.22937 5.22128 5.13587 5.23828 5.04703C5.25528 4.9582 5.28078 4.88037 5.31478 4.8132C5.34878 4.7462 5.39178 4.69287 5.44378 4.6532C5.49578 4.61353 5.55662 4.5937 5.62662 4.5937C5.75512 4.5937 5.85712 4.64853 5.93262 4.75803L6.12812 4.52003C6.07328 4.44253 6.00245 4.3827 5.91562 4.34003C5.82878 4.29753 5.72578 4.27637 5.60678 4.27637C5.49345 4.27637 5.39145 4.30237 5.30078 4.3542C5.21012 4.4062 5.13262 4.47887 5.06845 4.57237C5.00428 4.66603 4.95512 4.77687 4.92112 4.90537C4.88712 5.03387 4.87012 5.17453 4.87012 5.32753C4.87012 5.48437 4.88762 5.62687 4.92262 5.75537C4.95762 5.88387 5.00762 5.99437 5.07278 6.08687C5.13795 6.17937 5.21778 6.2507 5.31228 6.3007C5.40678 6.35087 5.51345 6.37587 5.63245 6.37587C5.74962 6.37587 5.85012 6.3607 5.93428 6.33053C6.01828 6.30037 6.09062 6.2607 6.15095 6.21153V5.19437H5.59845C5.59795 5.19437 5.59795 5.48903 5.59795 5.48903Z" fill="#252A30"/><path d="M2.83103 4.45339C2.7772 4.40723 2.71636 4.37456 2.6482 4.35573C2.5802 4.33689 2.51403 4.32739 2.44986 4.32739H1.89453V6.33339H2.22886V5.52873H2.46686C2.5367 5.52873 2.6047 5.51639 2.67086 5.49189C2.73703 5.46739 2.79553 5.42956 2.84653 5.37856C2.89753 5.32756 2.93853 5.26389 2.96986 5.18723C3.00103 5.11073 3.0167 5.02156 3.0167 4.91956C3.0167 4.80623 2.9992 4.71173 2.9642 4.63623C2.9292 4.56073 2.88486 4.49973 2.83103 4.45339ZM2.6172 5.16739C2.5662 5.22323 2.50103 5.25106 2.4217 5.25106H2.22903V4.61356H2.4217C2.50103 4.61356 2.5662 4.63806 2.6172 4.68723C2.6682 4.73639 2.6937 4.81473 2.6937 4.92239C2.6937 5.03006 2.6682 5.11173 2.6172 5.16739Z" fill="#252A30"/><path d="M4.25786 5.75256H4.24936L3.68553 4.32739H3.29736V6.33339H3.60336L3.5977 4.91673H3.6062L4.1757 6.33339H4.5497V4.32739H4.25503L4.25786 5.75256Z" fill="#252A30"/></svg>