<svg width="8" height="34" viewBox="0 0 8 34" fill="none" xmlns="http://www.w3.org/2000/svg"><g clip-path="url(#clip0_76_919)"><path d="M0.666992 19.8333C0.666992 14.4908 0.666992 11.8195 1.05752 10.1597C1.44804 8.5 2.07658 8.5 3.33366 8.5H4.66699C5.92406 8.5 6.55263 8.5 6.94313 10.1597C7.33366 11.8195 7.33366 14.4908 7.33366 19.8333C7.33366 25.1759 7.33366 27.8473 6.94313 29.5069C6.55263 31.1667 5.92406 31.1667 4.66699 31.1667H3.33366C2.07658 31.1667 1.44804 31.1667 1.05752 29.5069C0.666992 27.8473 0.666992 25.1759 0.666992 19.8333Z" stroke="#F4DF08" stroke-width="1.75"/><path d="M5.33366 8.50004C5.33366 5.82875 5.33366 4.4931 5.13839 3.66324C4.94313 2.83337 4.62886 2.83337 4.00033 2.83337C3.37179 2.83337 3.05752 2.83337 2.86226 3.66324C2.66699 4.4931 2.66699 5.82875 2.66699 8.50004" stroke="#F4DF08" stroke-width="1.75"/><path d="M3.99967 24.5555C4.36787 24.5555 4.66634 23.4984 4.66634 22.1945C4.66634 20.8904 4.36787 19.8333 3.99967 19.8333C3.63147 19.8333 3.33301 18.7762 3.33301 17.4721C3.33301 16.1682 3.63147 15.1111 3.99967 15.1111M3.99967 24.5555C3.63147 24.5555 3.33301 23.4984 3.33301 22.1945M3.99967 24.5555V25.5M3.99967 15.1111V14.1666M3.99967 15.1111C4.36787 15.1111 4.66634 16.1682 4.66634 17.4721" stroke="#F4DF08" stroke-width="1.75" stroke-linecap="round"/></g><defs><clipPath id="clip0_76_919"><rect width="8" height="34" fill="white"/></clipPath></defs></svg>