<svg width="12" height="10" viewBox="0 0 12 10" fill="none" xmlns="http://www.w3.org/2000/svg"><g clip-path="url(#clip0_76_565)"><path d="M9.375 3.75H7.5V4.375H9.375C9.47443 4.37507 9.56977 4.40801 9.64008 4.4666C9.71039 4.52519 9.74992 4.60464 9.75 4.6875V5.3125H8.25C7.95173 5.31277 7.66577 5.41163 7.45487 5.58739C7.24396 5.76315 7.12533 6.00144 7.125 6.25V6.5625C7.12533 6.81106 7.24396 7.04936 7.45487 7.22511C7.66577 7.40087 7.95173 7.49973 8.25 7.5H10.5V4.6875C10.4997 4.43894 10.381 4.20065 10.1701 4.02489C9.95923 3.84913 9.67327 3.75027 9.375 3.75ZM8.25 6.875C8.15057 6.87493 8.05523 6.84199 7.98492 6.7834C7.91461 6.72481 7.87508 6.64536 7.875 6.5625V6.25C7.87508 6.16714 7.91461 6.08769 7.98492 6.0291C8.05523 5.97051 8.15057 5.93757 8.25 5.9375H9.75V6.875H8.25Z" fill="black"/><path d="M5.99976 7.5H6.74976L4.49976 2.1875H3.74976L1.49976 7.5H2.24976L2.88486 5.9375H5.36492L5.99976 7.5ZM3.13892 5.3125L4.07514 3.00903L4.17519 3.00919L5.11101 5.3125H3.13892Z" fill="black"/></g><defs><clipPath id="clip0_76_565"><rect width="12" height="10" fill="white"/></clipPath></defs></svg>