<svg width="8" height="17" viewBox="0 0 8 17" fill="none" xmlns="http://www.w3.org/2000/svg"><g clip-path="url(#clip0_76_296)"><path d="M6.76654 2.51456V4.95831C6.76654 5.14617 6.73414 5.32633 6.67646 5.45917C6.61878 5.59201 6.54054 5.66664 6.45897 5.66664H5.38245C5.33787 5.6678 5.29371 5.64663 5.25303 5.60458C5.21235 5.56254 5.17613 5.50063 5.14687 5.42314C5.11761 5.34566 5.09602 5.25445 5.08359 5.15584C5.07116 5.05723 5.06819 4.95358 5.07488 4.85206C5.08934 4.68023 5.12966 4.52565 5.18873 4.41552C5.2478 4.3054 5.32184 4.24677 5.39783 4.24997H5.75154C5.39329 3.33118 4.92689 2.67178 4.40899 2.35189C3.89109 2.032 3.344 2.06539 2.83418 2.44799C2.32437 2.8306 1.87378 3.54596 1.53716 4.50715C1.20054 5.46835 0.992385 6.634 0.937983 7.86247C0.930332 8.0378 0.894579 8.20027 0.837706 8.31815C0.780832 8.43603 0.706922 8.50086 0.630407 8.49997C0.587292 8.50047 0.544613 8.48009 0.50514 8.44015C0.465666 8.4002 0.43028 8.3416 0.401277 8.26813C0.372275 8.19465 0.350303 8.10796 0.336789 8.01367C0.323275 7.91938 0.318519 7.8196 0.322831 7.72081C0.387428 6.2337 0.636374 4.82076 1.03999 3.65044C1.4436 2.48013 1.98485 1.60183 2.5992 1.12027C3.21355 0.638712 3.87507 0.57421 4.5049 0.934457C5.13472 1.2947 5.70627 2.0645 6.15139 3.15206V2.47914C6.15089 2.37646 6.16008 2.27476 6.17834 2.18108C6.1966 2.0874 6.22348 2.00398 6.25712 1.93661C6.29077 1.86923 6.33037 1.8195 6.37319 1.79087C6.41601 1.76224 6.46102 1.7554 6.50511 1.77081C6.57972 1.80412 6.64684 1.89696 6.69466 2.033C6.74248 2.16904 6.76793 2.33956 6.76654 2.51456Z" fill="#F4DF08"/><path d="M0.615044 14.4854V12.0417C0.615044 11.8538 0.647449 11.6736 0.705131 11.5408C0.762813 11.408 0.841046 11.3333 0.92262 11.3333H1.99914C2.04372 11.3322 2.08788 11.3534 2.12856 11.3954C2.16924 11.4374 2.20546 11.4994 2.23472 11.5768C2.26397 11.6543 2.28557 11.7455 2.298 11.8441C2.31043 11.9427 2.3134 12.0464 2.30671 12.1479C2.29225 12.3198 2.25193 12.4743 2.19286 12.5845C2.13379 12.6946 2.05975 12.7532 1.98376 12.75H1.63004C1.98829 13.6688 2.4547 14.3282 2.9726 14.6481C3.4905 14.968 4.03759 14.9346 4.54741 14.552C5.05722 14.1694 5.50781 13.454 5.84443 12.4928C6.18105 11.5316 6.3892 10.366 6.44361 9.13751C6.45126 8.96218 6.48701 8.79971 6.54388 8.68183C6.60076 8.56395 6.67467 8.49913 6.75118 8.50001C6.7943 8.49951 6.83698 8.51989 6.87645 8.55984C6.91592 8.59978 6.95131 8.65839 6.98031 8.73186C7.00931 8.80533 7.03129 8.89202 7.0448 8.98631C7.05831 9.0806 7.06307 9.18038 7.05876 9.27918C6.99416 10.7663 6.74521 12.1792 6.3416 13.3495C5.93799 14.5198 5.39674 15.3981 4.78239 15.8797C4.16804 16.3613 3.50652 16.4258 2.87669 16.0655C2.24687 15.7053 1.67532 14.9355 1.2302 13.8479V14.5208C1.2307 14.6235 1.22151 14.7252 1.20325 14.8189C1.18499 14.9126 1.15811 14.996 1.12446 15.0634C1.09082 15.1308 1.05121 15.1805 1.0084 15.2091C0.965576 15.2377 0.920566 15.2446 0.876484 15.2292C0.801871 15.1959 0.73475 15.103 0.68693 14.967C0.63911 14.8309 0.613655 14.6604 0.615044 14.4854Z" fill="#F4DF08"/><path d="M3.79867 7.79159C3.26041 7.54367 3.26041 7.33117 3.26041 7.15409C3.26041 6.977 3.29117 6.94158 3.33731 6.83534C3.42215 6.73029 3.51795 6.68127 3.61412 6.69367C3.79282 6.6901 3.96846 6.80042 4.12162 7.01242C4.15276 7.07093 4.18905 7.11312 4.22797 7.13608C4.2669 7.15903 4.30753 7.1622 4.34705 7.14535C4.38656 7.12849 4.424 7.09204 4.45678 7.0385C4.48956 6.98497 4.51688 6.91564 4.53685 6.83534C4.56321 6.76291 4.58265 6.67851 4.59391 6.58764C4.60516 6.49676 4.60798 6.40144 4.60218 6.30789C4.59638 6.21434 4.58208 6.12465 4.56023 6.04467C4.53837 5.96468 4.50945 5.8962 4.47534 5.84367C4.3291 5.63579 4.16749 5.49172 3.99859 5.41867V4.60409C3.99859 4.41622 3.96619 4.23606 3.90851 4.10322C3.85082 3.97038 3.77259 3.89575 3.69102 3.89575C3.60944 3.89575 3.53121 3.97038 3.47353 4.10322C3.41585 4.23606 3.38344 4.41622 3.38344 4.60409V5.38325C2.92208 5.56034 2.6145 6.26867 2.6145 7.22492C2.6145 8.18117 3.122 8.96033 3.61412 9.17283C4.10624 9.38533 4.12162 9.63325 4.12162 9.81034C4.12162 9.98742 3.95246 10.3062 3.73715 10.3062C3.51072 10.3165 3.28912 10.1546 3.10662 9.84575C3.07245 9.79342 3.03407 9.75737 2.99376 9.73972C2.95344 9.72207 2.912 9.72318 2.87187 9.74298C2.83174 9.76278 2.79374 9.80088 2.76011 9.85502C2.72647 9.90917 2.69788 9.97827 2.67602 10.0583C2.65177 10.1247 2.63366 10.2018 2.62281 10.2849C2.61196 10.368 2.60859 10.4554 2.61291 10.5416C2.61723 10.6278 2.62915 10.7111 2.64793 10.7863C2.66671 10.8615 2.69197 10.9271 2.72215 10.9791C2.92004 11.2989 3.14563 11.5164 3.38344 11.6166V12.3958C3.38344 12.5836 3.41585 12.7638 3.47353 12.8966C3.53121 13.0295 3.60944 13.1041 3.69102 13.1041C3.77259 13.1041 3.85082 13.0295 3.90851 12.8966C3.96619 12.7638 3.99859 12.5836 3.99859 12.3958V11.6166C4.16729 11.5593 4.32644 11.4005 4.45996 11.1562C4.55636 10.9932 4.63453 10.7797 4.68802 10.5334C4.7415 10.287 4.76876 10.0149 4.76753 9.7395C4.76753 8.42909 4.24465 8.00409 3.79867 7.79159Z" fill="#F4DF08"/></g><defs><clipPath id="clip0_76_296"><rect width="7.38182" height="17" fill="white"/></clipPath></defs></svg>