<svg width="16" height="21" viewBox="0 0 16 21" fill="none" xmlns="http://www.w3.org/2000/svg"><path d="M5.78101 12.5386C5.78101 13.6673 6.44101 14.5773 7.26102 14.5773H8.93435C9.64769 14.5773 10.2277 13.7811 10.2277 12.8011C10.2277 11.7336 9.87435 11.3573 9.34769 11.1123L6.661 9.88733C6.13433 9.64233 5.78101 9.26608 5.78101 8.19861C5.78101 7.21861 6.361 6.42236 7.07435 6.42236H8.74769C9.56769 6.42236 10.2277 7.33236 10.2277 8.46111" stroke="#84878B" stroke-width="1.31584" stroke-linecap="round" stroke-linejoin="round"/><path d="M7.99976 5.25V15.75" stroke="#84878B" stroke-width="1.31584" stroke-linecap="round" stroke-linejoin="round"/><path d="M7.99967 19.25C11.6815 19.25 14.6663 15.3324 14.6663 10.5C14.6663 5.66751 11.6815 1.75 7.99967 1.75C4.31777 1.75 1.33301 5.66751 1.33301 10.5C1.33301 15.3324 4.31777 19.25 7.99967 19.25Z" stroke="#84878B" stroke-width="1.31584" stroke-linecap="round" stroke-linejoin="round"/></svg>