<svg width="9" height="27" viewBox="0 0 9 27" fill="none" xmlns="http://www.w3.org/2000/svg"><g clip-path="url(#clip0_76_331)"><path d="M1.95975 2.33328C2.05109 2.47379 2.10919 2.76941 2.10919 3.09376C2.10919 4.02733 2.2189 4.56483 2.35635 5.21942L2.36634 5.26697C2.48323 5.82276 2.63646 6.55133 2.63646 7.59376C2.63646 8.65746 2.46872 9.59579 2.21329 10.1526C2.28049 10.3329 2.34003 10.5553 2.39119 10.8203C2.55843 11.6865 2.63646 13.0101 2.63646 14.9118C2.63646 16.8379 2.55562 19.1509 2.42394 20.9974C2.35846 21.9157 2.27736 22.7627 2.18044 23.3993C2.13238 23.715 2.07385 24.0234 2.00098 24.2646C1.92891 24.5029 1.81755 24.7555 1.66979 24.7555C1.52203 24.7555 1.41068 24.5029 1.3386 24.2646C1.26573 24.0234 1.2072 23.715 1.15914 23.3993C1.06222 22.7627 0.981124 21.9157 0.915648 20.9974C0.783963 19.1509 0.703125 16.8379 0.703125 14.9118C0.703125 13.0101 0.781158 11.6865 0.948395 10.8203C0.999551 10.5553 1.05909 10.3329 1.1263 10.1526C0.870861 9.59579 0.703125 8.65746 0.703125 7.59376C0.703125 7.17954 0.703245 6.4675 0.837899 5.54814C0.969675 4.64841 1.22008 3.61464 1.68086 2.43491C1.75999 2.23228 1.86841 2.19278 1.95975 2.33328ZM1.2304 7.59234V7.59376C1.2304 8.3704 1.42712 9.00001 1.66979 9.00001C1.91246 9.00001 2.10919 8.3704 2.10919 7.59376C2.10919 7.09984 2.04422 6.75836 1.91871 6.16067L1.91442 6.14021C1.83397 5.75715 1.73895 5.30473 1.67113 4.72225C1.48016 5.34374 1.37469 5.859 1.31532 6.26437C1.2304 6.84421 1.2304 7.25681 1.2304 7.59234ZM1.39696 11.7073C1.30974 12.159 1.2304 13.0854 1.2304 14.9118C1.2304 16.7136 1.30694 18.9006 1.4297 20.6219C1.49145 21.4878 1.56184 22.1917 1.63314 22.6602C1.64627 22.7464 1.65856 22.8188 1.66979 22.879C1.68102 22.8188 1.69331 22.7464 1.70644 22.6602C1.77775 22.1917 1.84814 21.4878 1.90988 20.6219C2.03265 18.9006 2.10919 16.7136 2.10919 14.9118C2.10919 13.0854 2.02984 12.159 1.94263 11.7073C1.90294 11.5017 1.86354 11.4044 1.82834 11.3497C1.79044 11.2908 1.74033 11.2555 1.66979 11.2555C1.59925 11.2555 1.54914 11.2908 1.51124 11.3497C1.47604 11.4044 1.43664 11.5017 1.39696 11.7073Z" fill="#F4DF08"/><path d="M3.5152 16.7816C3.32597 16.68 3.14529 16.4978 2.97672 16.2464C2.9841 15.7893 2.98793 15.3416 2.98793 14.9118C2.98793 14.714 2.98713 14.5199 2.98548 14.3298C3.14405 14.6708 3.32298 14.9225 3.5152 15.0621V11.8125C3.5152 10.8805 3.75126 10.125 4.04246 10.125H5.44852C5.44852 7.32906 4.74032 5.0625 3.8667 5.0625C3.50521 5.0625 3.17204 5.4506 2.90565 6.10371C2.83551 5.48224 2.73527 5.00619 2.66552 4.67498L2.65137 4.60768C2.9949 3.83118 3.41416 3.375 3.8667 3.375C5.03152 3.375 5.97579 6.39708 5.97579 10.125H7.2061C7.49733 10.125 7.73337 10.8805 7.73337 11.8125V21.9375C7.73337 22.8694 7.49733 23.625 7.2061 23.625H4.04246C3.75126 23.625 3.5152 22.8694 3.5152 21.9375V16.7816ZM4.04246 16.8519V21.9375H7.2061V11.8125H5.90936C5.68934 14.5485 4.9468 16.6131 4.04246 16.8519ZM5.35853 11.8125H4.04246V15.1566C4.65378 14.9403 5.1601 13.6091 5.35853 11.8125Z" fill="#F4DF08"/></g><defs><clipPath id="clip0_76_331"><rect width="8.43636" height="27" fill="white"/></clipPath></defs></svg>