<svg width="12" height="9" viewBox="0 0 12 9" fill="none" xmlns="http://www.w3.org/2000/svg"><path d="M8.24887 5.98336H6.00564C5.78849 5.98336 5.61616 5.92832 5.46386 5.81057C5.30809 5.68954 5.23553 5.55187 5.23553 5.37734V4.77131H8.24889C8.6575 4.77131 9.01178 4.65755 9.3017 4.43339C9.58926 4.21147 9.73499 3.94138 9.73499 3.63065C9.73499 3.31939 9.58895 3.04911 9.30093 2.82737C9.00988 2.60312 8.65483 2.48941 8.24552 2.48941H5.23579V1.87577C5.23579 1.56522 5.09092 1.29531 4.80641 1.07439C4.51874 0.84893 4.16582 0.734619 3.75747 0.734619C3.34265 0.734619 2.98609 0.846363 2.69774 1.06672C2.41103 1.28578 2.26562 1.55822 2.26562 1.87646V5.37818C2.26562 6.16872 2.63362 6.85423 3.35927 7.41559C4.08763 7.9795 4.97833 8.26546 6.00665 8.26546H8.2491C8.65738 8.26546 9.01157 8.15171 9.30152 7.92762C9.58895 7.70605 9.73464 7.43582 9.73464 7.12457C9.73464 6.81373 9.58898 6.54361 9.3022 6.32218C9.01227 6.09737 8.65788 5.98336 8.24887 5.98336ZM8.79728 7.56017C8.64018 7.68156 8.46599 7.73811 8.24913 7.73811H6.00667C5.16428 7.73811 4.4635 7.51262 3.86423 7.04863C3.26167 6.58244 2.96877 6.03606 2.96877 5.37821V1.87648C2.96877 1.69881 3.04424 1.55478 3.19954 1.43613C3.35505 1.31732 3.5323 1.26196 3.75749 1.26196C3.97244 1.26196 4.14433 1.31821 4.29958 1.43989C4.4564 1.56167 4.53266 1.70425 4.53266 1.87577V3.01675H8.24554C8.46384 3.01675 8.63915 3.07346 8.79719 3.19524C8.95509 3.31685 9.03189 3.45926 9.03189 3.63065C9.03189 3.80176 8.9552 3.94414 8.79721 4.06608C8.64025 4.18746 8.46599 4.24399 8.24887 4.24399H4.53238V5.37734C4.53238 5.68849 4.67559 5.95748 4.95859 6.17732C5.24472 6.39855 5.59698 6.51076 6.00564 6.51076H8.24887C8.46599 6.51076 8.64011 6.56736 8.79733 6.68924C8.9571 6.81266 9.03154 6.951 9.03154 7.12465C9.03161 7.29611 8.95502 7.43853 8.79728 7.56017Z" fill="#252A30"/></svg>